<svg width="378" height="365" viewBox="0 0 378 365" fill="none" xmlns="http://www.w3.org/2000/svg">
<path d="M243.47 237.828C243.478 238.055 243.767 238.286 244.528 238.352C245.5 238.481 246.481 238.523 247.46 238.477C248.671 238.414 250.201 238.378 251.895 238.166C252.771 238.087 253.692 237.933 254.672 237.764C255.652 237.595 256.73 237.363 257.722 237.14L259.337 236.77L260.948 236.356C262.159 236.087 263.353 235.742 264.522 235.323C265.793 234.851 266.92 234.192 268.068 233.636C269.215 233.08 270.388 232.671 271.709 232.096L273.676 231.266L275.548 230.289C276.81 229.659 278.025 228.921 279.309 228.253L283.141 226.149L286.954 223.87L290.375 221.776L292.011 220.719C292.55 220.37 293.123 220.001 293.646 219.663C294.272 219.216 294.819 218.667 295.262 218.038C295.501 217.68 295.685 217.287 295.807 216.873L296.059 215.828C296.332 214.487 296.459 213.12 296.438 211.752C296.455 210.376 296.279 209.005 295.916 207.678C295.73 206.973 295.442 206.298 295.062 205.675C294.598 204.936 293.922 204.353 293.123 204.003C291.814 203.66 290.43 203.742 289.17 204.235C288.135 204.462 287.08 204.587 285.976 204.743C284.872 204.9 283.822 204.997 282.76 205.219L279.916 205.733C278.227 205.989 276.557 206.023 275.016 206.113C272.026 206.328 269.826 206.402 268.734 206.435C267.642 206.467 266.593 206.494 265.534 206.505C264.475 206.516 263.274 206.595 262.426 206.61L259.777 206.743L258.592 206.811L258.009 206.84L257.43 206.913C255.968 207.091 254.954 207.351 254.234 207.491C253.514 207.632 253.111 207.799 253.087 207.977C253.063 208.155 253.488 208.345 254.301 208.493C255.38 208.623 256.465 208.697 257.551 208.715L258.037 208.749L258.566 208.779L259.759 208.867L262.47 208.973L265.435 209.007C266.472 209.033 267.634 209.073 268.877 208.989C270.121 208.905 272.137 208.833 275.096 208.569C276.53 208.456 278.259 208.406 280.257 208.09C281.238 207.921 282.186 207.703 283.145 207.501C284.104 207.299 285.035 207.162 286.113 207C287.19 206.838 288.245 206.713 289.498 206.392C290.75 206.07 291.533 205.703 292.324 205.958C292.71 206.11 293.046 206.369 293.292 206.703C293.585 207.141 293.815 207.617 293.975 208.119C294.33 209.243 294.531 210.41 294.571 211.588C294.616 212.826 294.539 214.066 294.343 215.288C294.273 215.852 294.131 216.404 293.921 216.931C293.649 217.406 293.291 217.825 292.867 218.169C292.359 218.497 291.82 218.846 291.231 219.226L286.178 222.491C284.952 223.283 283.709 224.086 282.483 224.879C281.256 225.671 279.951 226.306 278.688 227.006C277.425 227.706 276.195 228.385 274.939 228.987L273.072 229.938C272.48 230.204 271.877 230.455 271.236 230.683C270.013 231.194 268.696 231.558 267.407 232.182C266.118 232.807 265.046 233.336 263.982 233.699C262.891 234.077 261.772 234.372 260.637 234.583L258.919 234.974C258.382 235.112 257.84 235.206 257.309 235.317C256.274 235.545 255.261 235.735 254.314 235.883C253.366 236.031 252.456 236.201 251.607 236.285C249.901 236.551 248.43 236.643 247.147 236.845C246.196 236.947 245.25 237.101 244.315 237.305C243.811 237.422 243.463 237.6 243.47 237.828Z" fill="#014E72"/>
<path d="M280.366 209.622C280.179 209.669 280.012 209.777 279.892 209.928C279.804 210.062 279.76 210.22 279.767 210.381C279.763 210.596 279.778 210.812 279.812 211.025L279.941 211.87L280.058 212.05L280.06 212.304C280.024 212.478 280.029 212.658 280.074 212.829C280.175 213.019 280.291 213.2 280.423 213.37C280.529 213.533 280.505 213.711 280.459 213.927C280.442 214.029 280.439 214.132 280.45 214.235L280.598 214.464C280.704 214.628 280.695 214.866 280.719 215.082L280.727 215.704L280.762 216.332L280.791 216.916L280.788 217.197C280.793 217.295 280.776 217.392 280.741 217.483L280.677 217.78L280.646 218.055L280.612 218.611L280.567 219.151L280.525 219.41C280.55 219.5 280.601 219.58 280.673 219.639C280.779 219.803 280.896 219.984 280.949 220.065C280.928 220.226 280.88 220.383 280.807 220.528C280.743 220.674 280.718 220.834 280.736 220.992C280.81 221.107 280.895 221.238 280.844 221.41C280.793 221.582 280.703 221.873 280.646 222.072L280.428 222.955C280.412 223.099 280.368 223.238 280.299 223.364C280.246 223.503 280.239 223.654 280.277 223.797C280.291 223.93 280.315 224.062 280.347 224.192L280.442 224.34L280.548 224.504C280.74 224.731 280.963 224.931 281.21 225.098C281.371 225.219 281.551 225.315 281.741 225.381C281.818 225.402 281.898 225.404 281.976 225.386C282.053 225.368 282.125 225.332 282.185 225.28C282.316 225.195 282.276 224.989 282.327 224.817L282.474 224.722C282.539 224.603 282.59 224.477 282.625 224.346C282.666 224.192 282.727 224.044 282.804 223.905C282.906 223.758 282.972 223.588 282.994 223.411L283.126 222.466C283.226 222.221 283.269 221.955 283.25 221.69C283.175 221.553 283.09 221.421 282.996 221.297C282.947 221.15 282.942 220.992 282.981 220.842C283.028 220.673 283.056 220.5 283.063 220.324C283.006 220.127 282.891 219.95 282.735 219.817C282.676 219.747 282.626 219.67 282.587 219.587L282.564 219.3L282.528 218.743L282.466 218.18L282.442 217.893L282.452 217.585C282.463 217.486 282.461 217.386 282.445 217.287L282.395 216.995L282.252 216.414L282.12 215.78C282.096 215.563 282.099 215.352 282.091 215.125C282.078 214.916 282.052 214.708 282.013 214.502L281.963 214.209C281.959 214.102 281.977 213.996 282.016 213.896C282.072 213.697 282.178 213.466 282.078 213.276C281.978 213.085 281.835 212.899 281.75 212.768C281.738 212.587 281.763 212.405 281.822 212.234C281.857 212.152 281.871 212.063 281.863 211.975L281.861 211.721C281.864 211.431 281.826 211.144 281.749 210.865C281.711 210.64 281.627 210.425 281.503 210.234C281.38 210.081 281.223 209.96 281.044 209.881C280.955 209.793 280.849 209.724 280.732 209.68C280.615 209.635 280.491 209.616 280.366 209.622Z" fill="#014E72"/>
<path d="M135.289 308.241C135.172 308.061 134.87 308.024 134.447 308.158C133.835 308.392 133.248 308.685 132.695 309.035L130.25 310.452C129.318 311.054 128.218 311.649 127.026 312.279L126.123 312.747L125.172 313.176C124.493 313.452 123.776 313.706 123.026 314.052C122.276 314.397 121.636 314.95 120.897 315.242C120.158 315.58 119.377 315.819 118.575 315.953C118.147 316.044 117.708 316.118 117.275 316.236C117.135 316.308 116.977 316.338 116.82 316.321C116.643 316.326 116.467 316.307 116.296 316.264C115.463 316.045 114.662 315.72 113.911 315.298C113.133 314.848 112.361 314.372 111.569 313.862C110.777 313.352 109.966 312.855 109.168 312.372C108.486 311.912 107.83 311.414 107.205 310.878C106.895 310.614 106.577 310.332 106.298 310.047C106.011 309.767 105.747 309.464 105.506 309.143C105.294 308.815 105.072 308.471 104.86 308.144C104.649 307.816 104.416 307.456 104.225 307.161C103.891 306.575 103.665 305.935 103.56 305.269C103.522 305.008 103.534 304.744 103.601 304.489C103.668 304.235 103.786 303.996 103.947 303.788C104.119 303.59 104.318 303.414 104.537 303.268C104.767 303.119 105.24 302.814 105.498 302.531C106.022 302.027 106.579 301.558 107.165 301.128C107.754 300.748 108.359 300.357 108.948 299.977C109.568 299.634 110.163 299.25 110.73 298.825L112.228 297.555C113.08 296.865 114.059 296.372 114.84 295.751L118.115 293.287C118.688 292.917 119.223 292.454 119.78 292.025C120.301 291.624 120.794 291.189 121.257 290.723C121.7 290.297 122.117 289.865 122.468 289.476L123 288.9L123.257 288.617L123.494 288.302C123.914 287.681 124.261 287.013 124.526 286.312C124.694 285.855 124.774 285.547 124.646 285.421C124.518 285.295 124.209 285.355 123.778 285.657C123.264 286.065 122.771 286.499 122.302 286.959L122.057 287.118L121.762 287.308L121.124 287.72L119.776 288.754C119.253 289.092 118.826 289.507 118.215 289.925C117.604 290.343 117.038 290.686 116.447 291.207L113.367 293.615C112.598 294.112 111.732 294.672 110.736 295.57L109.358 296.809C108.875 297.248 108.357 297.645 107.807 297.997C107.251 298.356 106.646 298.747 106.009 299.159C105.395 299.635 104.817 300.156 104.28 300.717C104.018 300.965 103.743 301.197 103.454 301.414C103.063 301.687 102.713 302.015 102.416 302.386C102.101 302.778 101.867 303.232 101.734 303.717C101.602 304.202 101.57 304.71 101.643 305.207C101.765 306.138 102.089 307.03 102.591 307.822C102.808 308.216 103.052 308.593 103.321 308.952C103.554 309.313 103.798 309.689 104.03 310.05C104.322 310.401 104.638 310.732 104.972 311.043C105.288 311.359 105.625 311.654 105.983 311.923C106.674 312.487 107.409 312.998 108.176 313.454L110.632 314.886C111.441 315.385 112.233 315.895 113.059 316.383C113.903 316.864 114.799 317.25 115.728 317.537C116.279 317.708 116.864 317.737 117.429 317.622C117.846 317.515 118.268 317.451 118.707 317.376C119.61 317.247 120.496 317.018 121.348 316.692C122.174 316.32 122.888 315.883 123.573 315.579C124.258 315.276 124.995 315.055 125.712 314.801L126.793 314.358L127.783 313.88C128.959 313.32 130.104 312.697 131.212 312.013C132.069 311.523 132.899 310.987 133.698 310.407C134.221 310.001 134.702 309.543 135.132 309.039C135.331 308.701 135.416 308.438 135.289 308.241Z" fill="#014E72"/>
<path d="M124.487 209.483C124.452 209.25 124.222 209.074 123.715 209.007C123.062 208.947 122.404 208.937 121.749 208.977L118.761 208.981C117.46 208.981 116.16 208.898 114.869 208.733L113.785 208.597L112.675 208.386C111.921 208.223 111.124 207.995 110.234 207.873C109.344 207.751 108.42 207.791 107.572 207.735C106.686 207.672 105.808 207.515 104.953 207.269C104.495 207.17 104.026 207.055 103.546 206.993L102.123 206.799C101.344 206.503 100.667 205.99 100.171 205.321C99.5396 204.581 98.9478 203.808 98.3973 203.007C97.847 202.155 97.339 201.369 96.6155 200.536C96.0908 199.831 95.6135 199.093 95.1868 198.325C94.9539 197.964 94.8028 197.551 94.6247 197.132C94.4487 196.749 94.3079 196.35 94.2033 195.942C94.0659 195.532 93.9578 195.113 93.8797 194.688C93.7828 194.283 93.7107 193.872 93.6642 193.457C93.5451 192.733 93.5882 191.991 93.7908 191.286C93.8631 191.018 93.996 190.771 94.1799 190.563C94.3635 190.356 94.5929 190.195 94.8497 190.091C95.1464 189.986 95.4513 189.906 95.7608 189.85C96.1998 189.783 96.634 189.688 97.0613 189.567C97.7883 189.311 98.533 189.109 99.2902 188.963C100.021 188.839 100.778 188.791 101.476 188.758C102.231 188.682 102.982 188.561 103.723 188.397L105.697 187.865C106.873 187.569 108.009 187.462 109.082 187.257C111.119 186.822 112.628 186.359 113.376 186.154L115.536 185.478C116.233 185.251 116.91 184.968 117.562 184.633C118.171 184.356 118.732 184.039 119.293 183.724L120.683 182.825C121.285 182.319 121.821 181.738 122.279 181.098C122.581 180.67 122.752 180.397 122.657 180.249C122.562 180.102 122.227 180.086 121.722 180.273C121.217 180.46 120.547 180.893 119.764 181.26L119.502 181.429L119.208 181.619L118.458 181.894L116.759 182.528C116.138 182.779 115.504 182.995 114.859 183.175C114.187 183.354 113.438 183.559 112.651 183.812C111.864 184.065 110.584 184.452 108.704 184.877C107.765 185.112 106.624 185.246 105.322 185.599L103.38 186.181C102.713 186.375 102.032 186.52 101.343 186.615C100.634 186.702 99.8708 186.777 99.0638 186.927C98.2344 187.101 97.42 187.34 96.6282 187.642C96.2691 187.766 95.9034 187.871 95.5325 187.955C95.0638 188.043 94.6032 188.17 94.1551 188.334C93.6568 188.557 93.2112 188.883 92.8474 189.291C92.4835 189.698 92.2095 190.177 92.0429 190.697C91.7513 191.658 91.6932 192.674 91.8729 193.663C91.9266 194.136 92.0196 194.604 92.1512 195.062C92.2529 195.52 92.382 195.971 92.5381 196.414C92.6852 196.876 92.8615 197.328 93.0654 197.768C93.3301 198.178 93.5024 198.624 93.7341 199.054C94.1868 199.898 94.7072 200.703 95.29 201.462C95.9116 202.245 96.4792 203.016 97.1163 203.858C97.7531 204.7 98.2727 205.432 98.98 206.276C99.6511 207.175 100.553 207.876 101.589 208.305C102.257 208.477 102.597 208.466 103.098 208.56C103.548 208.634 103.992 208.734 104.429 208.861C105.311 209.124 106.211 209.318 107.122 209.443C108.072 209.549 108.947 209.54 109.625 209.729C110.416 209.881 111.197 210.074 111.968 210.305C112.366 210.419 112.77 210.507 113.174 210.594L114.334 210.773C115.704 210.997 117.091 211.103 118.479 211.09C119.553 211.097 120.625 211.017 121.686 210.852C122.355 210.731 123.009 210.542 123.639 210.287C124.314 209.897 124.511 209.7 124.487 209.483Z" fill="#014E72"/>
<path d="M104.749 187.223C104.57 187.273 104.41 187.376 104.291 187.519C104.244 187.588 104.211 187.665 104.196 187.747C104.181 187.829 104.184 187.913 104.204 187.994C104.21 188.212 104.235 188.429 104.276 188.644L104.481 189.463L104.608 189.66C104.631 189.739 104.637 189.822 104.626 189.903C104.614 190.085 104.637 190.267 104.695 190.439C104.833 190.613 104.994 190.766 105.175 190.896C105.281 191.059 105.365 191.19 105.281 191.454C105.273 191.559 105.279 191.664 105.298 191.768L105.467 192.03C105.556 192.217 105.628 192.411 105.681 192.612L105.813 193.246L105.988 193.876L106.132 194.457L106.28 194.686C106.3 194.786 106.311 194.887 106.313 194.989L106.331 195.303L106.381 195.596L106.53 196.15L106.663 196.714L106.811 196.943C106.833 197.049 106.893 197.142 106.98 197.205C107.086 197.369 107.339 197.438 107.381 197.574C107.423 197.74 107.448 197.911 107.455 198.083C107.464 198.253 107.522 198.417 107.621 198.556L107.865 198.932C107.993 199.153 108.066 199.4 108.076 199.655C108.249 200.101 108.379 200.411 108.442 200.58C108.545 200.706 108.634 200.843 108.706 200.989C108.759 201.145 108.85 201.286 108.971 201.398C109.077 201.496 109.19 201.586 109.308 201.669L109.485 201.763L109.538 201.845C109.838 201.876 110.14 201.86 110.435 201.799C110.628 201.77 110.811 201.699 110.973 201.591C111.04 201.546 111.098 201.488 111.142 201.419C111.185 201.351 111.214 201.275 111.227 201.195C111.164 201.096 111.068 200.949 110.973 200.802L110.878 200.654C110.849 200.529 110.809 200.407 110.758 200.29C110.635 200.131 110.554 199.944 110.522 199.746C110.509 199.582 110.461 199.423 110.383 199.279L109.928 198.574C109.892 198.336 109.801 198.108 109.662 197.911L109.314 197.624C109.209 197.533 109.132 197.414 109.092 197.28C109.075 197.123 109.037 196.967 108.979 196.819C108.852 196.658 108.684 196.534 108.492 196.46C108.432 196.409 108.388 196.34 108.365 196.264L108.217 196.035L107.932 195.592L107.635 195.134L107.487 194.904L107.349 194.692C107.307 194.611 107.257 194.534 107.201 194.462L107.042 194.216L106.736 193.741L106.386 193.201C106.28 193.037 106.289 192.799 106.249 192.593C106.21 192.393 106.153 192.197 106.078 192.007L105.92 191.761C105.909 191.658 105.912 191.555 105.929 191.453C105.975 191.237 106.038 191.011 105.921 190.831C105.805 190.651 105.689 190.471 105.604 190.34C105.576 190.163 105.586 189.983 105.633 189.81L105.663 189.535L105.536 189.338C105.511 189.059 105.457 188.783 105.374 188.514C105.291 188.3 105.165 188.105 105.004 187.941C104.875 187.803 104.713 187.7 104.533 187.642C104.638 187.523 104.713 187.379 104.749 187.223Z" fill="#014E72"/>
<path d="M274.875 98.9577C274.7 99.0704 274.761 99.3796 275.057 99.885C275.47 100.527 275.986 101.095 276.585 101.568C276.943 101.871 277.316 102.233 277.786 102.603L279.35 103.659C280.665 104.431 282.04 105.095 283.462 105.646C283.854 105.787 284.269 105.89 284.688 106.037L285.915 106.429C286.811 106.741 287.734 106.968 288.672 107.108C289.674 107.174 290.68 107.146 291.677 107.024C292.596 107.011 293.58 106.955 294.654 107.004C295.168 106.974 295.725 106.939 296.277 106.861C296.818 106.789 297.353 106.684 297.881 106.545C298.953 106.339 299.985 105.928 301.054 105.609C302.122 105.233 303.158 104.773 304.152 104.234C305.158 103.676 306.125 103.052 307.047 102.363L308.437 101.465L306.772 101.078C306.174 100.944 305.55 100.996 304.982 101.226C304.414 101.456 303.93 101.853 303.594 102.365L302.159 104.593L304.546 103.515C304.698 103.44 304.84 103.348 304.971 103.24C305.29 103.016 305.55 102.718 305.73 102.372C305.909 102.025 306.003 101.641 306.003 101.25C306.024 100.556 305.819 99.8733 305.419 99.3055C305.227 99.0429 305.003 98.8054 304.753 98.5982L304.512 98.4053L304.449 98.3069C304.343 98.2333 304.228 98.175 304.105 98.1342C304.053 98.0523 303.827 98.3138 303.664 98.4195L305.855 97.0037C306.019 96.898 306.313 96.7078 306.066 96.6121L305.176 95.7013C304.637 95.1902 304.115 94.6688 303.603 94.1635L302.563 93.1639C302.181 92.8308 301.775 92.5264 301.349 92.2534C300.545 91.7278 299.762 91.3049 299.142 90.8469L297.147 89.3027C296.474 88.7825 295.757 88.3211 295.005 87.9242C294.27 87.5399 293.588 87.2378 292.965 86.9202C291.746 86.3611 290.653 85.6743 289.531 85.1924C287.979 84.4625 286.329 83.9638 284.634 83.7125C283.7 83.5888 282.754 83.5835 281.819 83.6971C280.848 83.8273 279.925 84.2002 279.136 84.7812C278.496 85.2434 277.937 85.8087 277.481 86.4537L276.925 87.2078L276.694 87.5664L276.462 87.9251C276.172 88.5689 275.761 89.1504 275.25 89.6371C274.808 89.9223 274.498 90.1231 274.4 90.1865C274.301 90.2499 274.707 90.6614 275.557 90.5065C276.491 90.2629 277.322 89.726 277.928 88.9745L278.186 88.6919L278.529 88.47L279.17 87.8472C279.571 87.4132 280.026 87.0329 280.525 86.7161C281.056 86.4133 281.643 86.2232 282.251 86.1581C282.993 86.1022 283.739 86.126 284.476 86.2297C285.901 86.4308 287.29 86.8399 288.598 87.4436C289.565 87.8636 290.637 88.4474 291.979 89.0895L293.945 89.9789C294.6 90.2957 295.228 90.6668 295.821 91.0887C296.458 91.5361 297.127 92.0329 297.843 92.5682C298.56 93.1035 299.44 93.5331 300.164 93.9711C300.519 94.1772 300.861 94.4062 301.186 94.657C301.517 94.9538 301.865 95.2403 302.206 95.5536L302.9 96.1967L303.059 96.4424L303.122 96.5405L300.081 98.5058L299.982 98.5692L302.447 99.2986C302.843 99.4193 303.224 99.5867 303.581 99.797C303.755 99.8929 303.909 100.022 304.035 100.177C304.256 100.415 304.389 100.723 304.412 101.048C304.434 101.181 304.43 101.317 304.4 101.448C304.369 101.58 304.313 101.704 304.234 101.813L304.07 101.918L305.038 103.057C305.183 102.826 305.39 102.639 305.635 102.518C305.879 102.396 306.153 102.345 306.425 102.37L306.14 101.068C305.328 101.674 304.476 102.225 303.59 102.717C302.651 103.232 301.675 103.676 300.67 104.046C299.684 104.387 298.681 104.679 297.665 104.919C297.171 105.048 296.67 105.147 296.164 105.216L294.704 105.323C293.71 105.292 292.706 105.245 291.663 105.245C291.155 105.248 290.669 105.284 290.198 105.309C289.728 105.335 289.302 105.285 288.875 105.236C288.015 105.093 287.173 104.859 286.362 104.538C285.953 104.407 285.556 104.223 285.147 104.092L284.007 103.691C283.287 103.367 282.589 103.075 281.918 102.719C281.248 102.363 280.706 102.063 280.148 101.773L278.659 100.831L277.396 99.9527C276.58 99.4809 276.057 99.0296 275.585 98.8007C275.112 98.5719 275.017 98.8191 274.875 98.9577Z" fill="#014E72"/>
<path d="M275.815 96.1445C275.915 95.9405 275.549 95.4807 274.721 94.8086C273.892 94.1366 272.711 93.2049 271.279 91.9937C269.564 90.4998 267.939 88.9068 266.411 87.2222C264.402 84.9924 262.528 82.6437 260.801 80.1898C260.356 79.5018 259.901 78.7975 259.435 78.0769C258.97 77.356 258.525 76.668 258.038 75.9147C257.075 74.424 256.059 72.8515 255.078 71.0471C254.098 69.243 252.779 67.7037 251.715 66.0927C250.651 64.4816 249.712 62.7427 248.668 60.9104C248.085 60.0093 247.591 59.0288 246.977 58.0787C246.363 57.1287 245.792 56.2441 245.188 55.3106C243.992 53.4597 242.606 51.7086 241.231 49.9038C239.856 48.0989 238.399 46.3466 236.845 44.6578C235.264 42.9442 233.569 41.3398 231.772 39.8559C230.146 38.5087 228.411 37.2997 226.585 36.2417C225.696 35.6551 224.696 35.2561 223.763 34.7446C222.83 34.2332 221.867 33.9266 220.872 33.5709C219.855 33.2127 218.819 32.9134 217.767 32.6752C216.71 32.4342 215.635 32.2822 214.553 32.221C212.444 32.0721 210.325 32.2074 208.253 32.6235C206.231 33.0194 204.265 33.6654 202.403 34.5462C201.489 34.9628 200.606 35.4407 199.757 35.9768C198.852 36.532 197.996 37.1629 197.198 37.8627C195.88 39.097 194.639 40.4109 193.481 41.7968C192.905 42.4479 192.34 43.115 191.822 43.8209C191.273 44.5122 190.765 45.2356 190.302 45.9876C189.34 47.4784 188.541 49.0687 187.92 50.731C187.352 52.3281 186.948 53.8198 186.6 55.1822C185.951 57.7303 185.445 60.3128 185.085 62.9178C184.759 66.2656 184.688 69.6335 184.873 72.9925C185.001 74.6976 185.119 76.3861 185.328 78.1087C185.52 79.7462 185.797 81.3729 186.158 82.9818C186.479 84.4463 186.844 85.8359 187.194 87.0957L187.721 88.9149L188.011 89.795L188.318 90.6646C188.94 92.2308 189.68 93.7474 190.531 95.2018C191.145 96.1519 191.494 96.6925 191.63 96.6512C191.766 96.6101 191.732 95.9121 191.397 94.712C191.062 93.5121 190.54 91.8067 189.987 89.9114L189.802 89.195L189.635 88.3977C189.502 87.8333 189.381 87.2152 189.233 86.5911C188.996 85.3278 188.722 83.972 188.424 82.4698C188.125 80.9679 187.944 79.5756 187.826 77.9572C187.707 76.3387 187.542 74.6115 187.41 72.7227C186.963 66.9873 187.464 61.2186 188.895 55.6496C189.245 54.2167 189.636 52.8492 190.093 51.4397C190.593 50.0385 191.227 48.6882 191.984 47.4079C192.862 45.9686 193.856 44.6038 194.957 43.3276C196.098 41.9091 197.327 40.5645 198.637 39.3012C199.256 38.7503 199.911 38.2417 200.598 37.7791C201.361 37.2707 202.155 36.8113 202.977 36.404C204.658 35.5352 206.445 34.8881 208.293 34.4783C210.184 34.0372 212.124 33.8447 214.066 33.9059C215.035 33.9547 216 34.0595 216.957 34.22L218.391 34.5013L219.806 34.9336C220.78 35.2408 221.738 35.5982 222.676 36.0042C223.606 36.4019 224.524 36.854 225.425 37.3161C227.216 38.3053 228.924 39.4377 230.534 40.7021C232.309 42.1058 233.989 43.6268 235.562 45.2549C237.095 46.9108 238.574 48.6253 239.928 50.3977C241.281 52.1699 242.592 53.9468 243.843 55.739C244.435 56.6562 245.028 57.5736 245.61 58.4745C246.192 59.3753 246.721 60.1943 247.179 61.1528C248.186 62.963 249.154 64.8915 250.355 66.7859C251.555 68.6799 252.609 70.2745 253.53 71.6997C254.451 73.1247 255.362 74.8578 256.291 76.4398C256.799 77.2259 257.297 77.9957 257.805 78.7821C258.313 79.5683 258.768 80.2726 259.244 81.0098C261.001 83.5696 262.927 86.01 265.008 88.3146C266.651 90.103 268.444 91.7489 270.365 93.2343C271.567 94.1779 272.868 94.9879 274.244 95.6503C275.156 96.1994 275.688 96.3426 275.815 96.1445Z" fill="#014E72"/>
<path d="M276.697 92.8813C276.786 92.6609 276.305 92.2751 275.472 91.5596C274.232 90.616 273.053 89.5939 271.942 88.5001C270.269 86.7643 268.742 84.893 267.377 82.9059C265.734 80.5777 264.086 77.8117 262.274 74.7566C261.787 74.003 261.3 73.2498 260.802 72.4797L259.425 70.0963C258.448 68.4057 257.488 66.7043 256.281 64.8368C255.074 62.9696 253.752 61.3167 252.526 59.6708C251.3 58.0251 250.168 56.2723 248.864 54.3983C248.25 53.4482 247.615 52.4655 246.795 51.5557C245.975 50.6458 245.317 49.7705 244.568 48.8618C243.02 47.0759 241.406 45.3322 239.717 43.6144C238.02 41.8714 236.227 40.2234 234.348 38.6782C233.403 37.8962 232.386 37.1835 231.391 36.433C230.396 35.6828 229.351 35.0344 228.258 34.4176C227.164 33.801 226.349 33.3293 225.292 32.8049C224.297 32.2767 223.274 31.8064 222.226 31.3962C221.213 30.933 220.176 30.5254 219.119 30.1759C218.093 29.7711 217.015 29.5387 215.961 29.1984C214.907 28.8582 213.758 28.6949 212.648 28.4834C211.52 28.3018 210.384 28.1835 209.243 28.1291C208.129 28.0589 207.011 28.0674 205.898 28.1543C204.787 28.2133 203.68 28.3466 202.587 28.5529C201.502 28.7743 200.43 29.056 199.377 29.3964C198.347 29.763 197.344 30.2013 196.376 30.7082L194.939 31.4976C194.481 31.7934 194.024 32.0893 193.582 32.3746C192.649 33.037 191.805 33.8165 191.071 34.6939C189.836 36.1786 188.729 37.7641 187.759 39.4339C186.773 41.001 185.879 42.625 185.084 44.2974C184.678 45.1402 184.32 46.0215 183.979 46.8921C183.637 47.7515 183.346 48.6297 183.106 49.5228C182.575 51.2125 182.272 52.8243 181.907 54.2679C181.311 57.1135 180.606 59.7521 180.229 62.4335C179.693 65.9436 179.364 69.4825 179.242 73.0317C179.18 74.8367 179.227 76.5945 179.163 78.4696C179.179 80.2219 179.289 81.9726 179.492 83.7135C179.654 85.327 179.871 86.8118 180.09 88.2264C180.21 88.9147 180.31 89.5704 180.511 90.2762L180.724 91.2528L180.987 92.1974C181.494 93.9245 182.158 95.6014 182.972 97.207C183.503 98.28 183.847 98.8475 184.031 98.8448C184.214 98.8422 184.155 98.0681 183.853 96.7769C183.552 95.4856 183.096 93.6674 182.692 91.6067L182.572 90.848L182.46 89.9921C182.355 89.3634 182.283 88.7136 182.216 88.0368C182.056 86.6772 181.93 85.2263 181.833 83.6407C181.735 82.0551 181.68 80.5352 181.649 78.837C181.618 77.1389 181.665 75.2741 181.796 73.2164C181.882 69.8465 182.155 66.4845 182.613 63.1453C182.915 60.8142 183.541 58.088 184.216 54.865C184.572 53.3348 184.88 51.7662 185.327 50.2699C185.769 48.7054 186.331 47.1771 187.01 45.6997C187.757 44.0448 188.596 42.4331 189.523 40.8718C190.48 39.1907 191.567 37.5872 192.775 36.0767C193.324 35.4013 193.95 34.7936 194.642 34.2666L195.789 33.3865L197.015 32.5941C198.758 31.6159 200.63 30.8906 202.577 30.4398C204.608 30.017 206.681 29.8305 208.755 29.8843C209.811 29.9018 210.864 29.997 211.906 30.1699C212.959 30.256 213.982 30.5472 215.027 30.7306C216.073 30.9141 217.148 31.287 218.208 31.6004C219.269 31.9139 220.285 32.2318 221.241 32.7058C222.196 33.1798 223.283 33.4992 224.249 33.9895C225.242 34.4435 226.211 34.9492 227.152 35.504C229.253 36.6782 231.261 38.0118 233.16 39.4929C235.019 40.9957 236.792 42.602 238.47 44.304C240.155 45.9785 241.741 47.7162 243.252 49.4799L245.458 52.141C246.051 53.0582 246.758 53.9014 247.378 54.8246C248.584 56.6918 249.812 58.5919 251.201 60.5267C252.591 62.4618 253.801 64.0479 254.811 65.6473C255.822 67.2467 256.797 69.0077 257.758 70.7091C258.287 71.5282 258.702 72.4211 259.182 73.2718L260.597 75.6773C262.397 78.7863 264.066 81.6555 265.805 84.0607C267.271 86.2032 268.977 88.1698 270.891 89.9225C272.12 91.0236 273.497 91.947 274.982 92.6661C276.015 92.9737 276.597 93.0851 276.697 92.8813Z" fill="#014E72"/>
<path d="M219.275 278.584C219.391 278.765 219.66 278.823 220.024 278.704C220.509 278.492 220.956 278.203 221.349 277.848C222.003 277.375 222.615 276.847 223.18 276.27C223.927 275.516 224.625 274.716 225.271 273.874L225.767 273.135L226.291 272.402C226.705 271.865 227.049 271.276 227.314 270.65C227.549 269.976 227.713 269.279 227.801 268.57C227.942 267.881 228.12 267.199 228.337 266.529C228.434 266.151 228.511 265.768 228.569 265.381C228.606 265.009 228.579 264.608 228.59 264.23C228.62 263.389 228.473 262.55 228.158 261.769C227.843 260.956 227.328 260.234 226.663 259.67C226.018 259.136 225.311 258.68 224.558 258.314C223.891 257.988 223.202 257.712 222.495 257.488C222.086 257.357 221.913 257.306 221.3 257.145C220.686 256.985 220.255 256.892 219.7 256.786C219.145 256.68 218.741 256.593 218.261 256.532L218.377 256.712C218.429 257.259 218.513 257.855 218.602 258.424C218.692 258.993 218.807 259.638 218.905 260.04L219.123 261.059C219.266 261.71 219.398 262.345 219.546 262.969L219.711 263.907C219.763 264.232 219.846 264.552 219.958 264.862C220.175 265.385 220.313 265.937 220.368 266.501C220.389 267.045 220.352 267.59 220.26 268.127C220.198 268.677 220.136 269.228 220.118 269.774C220.1 270.319 220.089 270.768 220.034 271.221C219.888 272.064 219.64 272.886 219.298 273.67C218.846 275.123 218.41 276.171 218.231 276.682C218.03 277.14 217.785 277.578 217.5 277.99L216.684 279.167L215.907 280.296L215.554 280.826L215.383 281.099L215.239 281.378C214.997 281.948 214.831 282.547 214.744 283.16C214.679 283.597 214.665 283.862 214.809 283.978C214.953 284.093 215.225 284.011 215.536 283.74C215.941 283.356 216.317 282.942 216.661 282.503L216.873 282.365L217.102 282.217L217.573 281.797L218.57 280.758C218.952 280.342 219.313 279.907 219.652 279.455C220.063 278.933 220.4 278.355 220.653 277.74C221.082 276.686 221.445 275.606 221.74 274.507C222.07 273.617 222.297 272.692 222.415 271.749C222.46 271.209 222.462 270.674 222.464 270.139C222.465 269.604 222.494 269.074 222.534 268.491C222.603 267.866 222.616 267.237 222.571 266.61C222.501 265.925 222.326 265.255 222.052 264.623C221.936 264.343 221.843 264.054 221.772 263.759L221.542 262.794C221.383 262.153 221.197 261.507 221.007 260.817L220.601 259.292C220.542 259.105 220.503 258.912 220.484 258.717L220.421 258.619L220.717 258.683L221.159 258.792L221.428 258.85L221.913 258.955C222.557 259.126 223.189 259.338 223.806 259.589C224.484 259.867 225.121 260.237 225.698 260.688C226.225 261.092 226.639 261.623 226.904 262.231C227.145 262.824 227.249 263.463 227.208 264.101C227.204 264.452 227.209 264.82 227.194 265.155C227.178 265.49 227.055 265.802 226.959 266.119C226.863 266.437 226.45 267.377 226.344 268.073C226.227 268.697 226.067 269.312 225.865 269.914C225.606 270.445 225.278 270.938 224.889 271.381L224.344 272.081L223.822 272.744C223.152 273.572 222.505 274.292 221.885 274.947L220.274 276.615C219.938 276.983 219.636 277.38 219.372 277.802C219.14 278.161 219.148 278.388 219.275 278.584Z" fill="#014E72"/>
<path d="M148.97 200.165C148.782 200.053 148.616 199.975 148.514 199.925C148.455 199.886 148.39 199.858 148.321 199.841L148.222 199.904C148.275 199.986 148.431 200.048 148.49 200.103L148.032 200.399L148.138 200.563C148.138 200.563 148.138 200.563 147.976 200.528C147.976 200.528 148.029 200.61 148.04 200.626C148.05 200.642 148.04 200.626 147.878 200.591L147.727 200.573C147.745 200.615 147.77 200.654 147.801 200.688L147.875 200.802L148.534 201.212C148.722 201.323 148.862 201.396 149.022 201.501L149.392 201.679C149.392 201.679 149.456 201.778 149.538 201.725L149.453 201.594C149.382 201.528 149.305 201.469 149.223 201.417L149.16 201.319L149.054 201.155C149.054 201.155 149.274 201.245 149.226 201.206L149.099 201.01L149.255 201.072C149.238 201.029 149.213 200.99 149.181 200.957C149.087 200.868 148.978 200.797 148.859 200.747C149.335 200.37 149.195 200.298 148.97 200.165Z" fill="#014E72"/>
<path d="M166.614 193.5C166.83 193.547 166.99 193.257 167.186 192.806C167.286 192.123 167.253 191.426 167.089 190.755C166.861 189.765 166.54 188.799 166.129 187.87C165.58 186.686 164.96 185.535 164.274 184.425C164.073 184.114 163.871 183.802 163.67 183.491L163.067 182.558C162.637 181.849 162.143 181.181 161.592 180.562C160.971 179.96 160.309 179.403 159.61 178.894C158.95 178.335 158.32 177.743 157.721 177.119C157.399 176.78 157.045 176.472 156.664 176.2C156.274 175.918 155.894 175.653 155.497 175.398C154.688 174.899 153.83 174.433 152.999 173.971C152.168 173.51 151.32 173.059 150.44 172.629C149.541 172.201 148.621 171.819 147.683 171.485C146.832 171.169 145.957 170.919 145.068 170.737C144.604 170.665 144.146 170.566 143.687 170.538C143.221 170.482 142.753 170.452 142.284 170.446C141.795 170.429 141.305 170.466 140.824 170.554C140.33 170.64 139.849 170.788 139.391 170.992C138.414 171.398 137.557 172.048 136.902 172.879C136.605 173.364 136.413 173.906 136.338 174.47C136.264 175.034 136.308 175.608 136.469 176.154C136.58 176.618 136.733 177.071 136.926 177.508C137.134 177.936 137.393 178.338 137.698 178.703C138.174 179.44 138.789 179.925 139.209 180.467L140.405 182.318C140.814 182.919 141.273 183.484 141.776 184.009C142.25 184.492 142.714 184.959 143.092 185.365C143.788 186.143 144.39 187.002 144.884 187.922C145.569 189.044 146.136 190.234 146.575 191.472C146.824 192.103 147.019 192.754 147.159 193.417C147.275 194.062 147.417 194.713 147.539 195.261C147.662 195.809 147.73 196.345 147.767 196.832C147.803 197.32 147.803 197.319 147.822 197.563L147.844 197.92L147.882 198.267C148.002 199.025 148.116 199.811 148.221 200.37C148.327 200.928 148.356 201.188 148.522 201.266C148.689 201.345 148.952 201.105 149.191 200.579C149.466 199.878 149.638 199.142 149.701 198.391L149.744 198.062L149.792 197.706C149.822 197.431 149.88 197.162 149.89 196.854C149.932 196.229 149.93 195.602 149.883 194.977C149.816 194.301 149.728 193.661 149.613 192.946C149.497 192.15 149.296 191.37 149.013 190.617C148.491 189.274 147.837 187.985 147.06 186.771C146.474 185.743 145.771 184.787 144.965 183.922L143.547 182.517C143.064 182.067 142.628 181.572 142.243 181.037L140.937 179.303C140.493 178.616 139.862 178.141 139.399 177.604C139.184 177.342 138.999 177.056 138.848 176.753C138.695 176.437 138.562 176.112 138.451 175.779C138.333 175.498 138.275 175.195 138.282 174.891C138.289 174.586 138.361 174.287 138.491 174.011C138.873 173.466 139.384 173.025 139.978 172.726C140.314 172.565 140.663 172.433 141.021 172.33C141.769 172.187 142.535 172.163 143.291 172.257C143.699 172.261 144.107 172.292 144.511 172.351C145.344 172.474 146.165 172.666 146.967 172.923C147.869 173.198 148.754 173.526 149.617 173.904C150.466 174.284 151.303 174.719 152.134 175.18C152.965 175.641 153.743 176.091 154.487 176.562C154.889 176.789 155.22 177.086 155.59 177.336C155.932 177.587 156.249 177.873 156.535 178.188C157.137 178.797 157.679 179.492 158.384 180.081C159.024 180.576 159.629 181.117 160.194 181.698C160.664 182.281 161.072 182.913 161.411 183.581L162.025 184.531L162.596 185.416C163.229 186.483 163.807 187.582 164.329 188.708C164.823 189.688 165.109 190.525 165.433 191.314L166.06 192.929C166.224 193.218 166.382 193.464 166.614 193.5Z" fill="#014E72"/>
<path d="M112.24 244.052C112.34 243.848 112.224 243.597 111.921 243.306C111.498 242.955 111.038 242.653 110.549 242.404C110.009 242.034 109.253 241.617 108.439 241.075C107.505 240.506 106.603 239.888 105.735 239.223C105.489 239.057 105.232 238.874 104.992 238.681C104.751 238.489 104.527 238.285 104.292 238.066C103.806 237.636 103.348 237.143 102.792 236.713C102.236 236.283 101.555 235.91 101.031 235.529C100.469 235.066 99.9776 234.523 99.5722 233.918C99.3606 233.59 99.1489 233.262 98.9266 232.918L98.1934 231.999C97.6756 231.395 97.2108 230.748 96.8039 230.064C96.4046 229.365 96.0461 228.643 95.7312 227.901C95.4287 227.17 95.1945 226.411 95.0325 225.636L94.8362 224.579C94.8245 224.238 94.8562 223.893 94.861 223.542C94.8313 223.202 94.871 222.861 94.9773 222.537C95.0566 222.219 95.1564 221.907 95.2762 221.601L95.8119 220.744C95.9527 220.409 96.2133 220.138 96.5432 219.985C96.873 219.832 97.2481 219.808 97.5953 219.917C98.2077 220.047 98.8033 220.246 99.3703 220.511L100.245 220.968C100.568 221.127 100.9 221.269 101.239 221.394C101.852 221.572 102.441 221.822 102.995 222.14C103.521 222.471 104.027 222.834 104.509 223.228C105.012 223.607 105.542 223.947 106.095 224.247L107.592 225.021C108.461 225.504 109.214 226.132 109.969 226.619C111.475 227.55 112.606 228.189 113.191 228.484L114.903 229.375C115.455 229.657 116.035 229.882 116.633 230.045C117.177 230.204 117.71 230.347 118.211 230.442L118.917 230.566L119.289 230.604L119.64 230.609C120.341 230.579 121.032 230.438 121.688 230.191C122.081 229.938 122.373 229.888 122.408 229.726C122.443 229.565 122.175 229.366 121.772 229.209C121.369 229.051 120.732 228.998 120.038 228.82L119.79 228.725L119.516 228.623C119.304 228.551 119.096 228.469 118.893 228.376C118.463 228.213 118.012 228.016 117.523 227.798C117.019 227.595 116.528 227.361 116.052 227.1C115.553 226.795 115.001 226.479 114.379 226.161C113.756 225.844 112.78 225.337 111.338 224.504C110.652 224.088 109.882 223.471 108.879 222.958L107.354 222.249C106.845 221.985 106.353 221.69 105.88 221.367C105.387 221.035 104.853 220.638 104.252 220.283C103.614 219.94 102.938 219.675 102.237 219.495L101.323 219.157C101.006 218.99 100.657 218.844 100.324 218.688C99.5937 218.388 98.8346 218.163 98.0589 218.015C97.5916 217.924 97.1111 217.929 96.6462 218.03C96.1813 218.131 95.7419 218.325 95.3548 218.602C94.9804 218.882 94.6759 219.246 94.4651 219.664L93.8612 220.774C93.6749 221.168 93.5473 221.587 93.4824 222.018C93.3744 222.43 93.3215 222.854 93.3248 223.28L93.3777 224.546C93.4392 224.954 93.5221 225.357 93.6261 225.756C93.8208 226.63 94.1005 227.484 94.4614 228.304C94.9271 229.025 95.1745 229.91 95.6296 230.614C96.0382 231.355 96.498 232.066 97.0056 232.743L97.6366 233.613C97.8483 233.94 98.06 234.268 98.2716 234.595C98.707 235.301 99.2383 235.942 99.8506 236.5C100.454 237.04 101.102 237.433 101.615 237.868C102.128 238.303 102.564 238.834 103.033 239.274C103.213 239.552 103.534 239.762 103.796 239.988C104.058 240.214 104.298 240.407 104.549 240.616C105.448 241.347 106.398 242.014 107.391 242.611C108.16 243.08 108.962 243.493 109.79 243.847C110.336 244.044 110.904 244.175 111.481 244.24C111.912 244.333 112.167 244.261 112.24 244.052Z" fill="#014E72"/>
<path d="M122.617 223.485C122.717 223.535 122.829 223.555 122.94 223.541C123.051 223.527 123.155 223.481 123.239 223.408C123.487 223.217 123.685 222.97 123.816 222.687L124.535 221.503L125.453 219.911L125.729 219.477L126.043 219.066C126.302 218.79 126.535 218.491 126.741 218.173C126.946 217.809 127.028 217.361 127.189 217.001C127.361 216.631 127.624 216.309 127.953 216.067C128.121 215.926 128.277 215.771 128.418 215.604L128.825 215.085C129.086 214.72 129.376 214.377 129.693 214.06L130.673 213.102L131.691 212.166C132.034 211.944 132.33 211.613 132.653 211.358L133.176 211.02L133.699 210.682L134.222 210.344L135.759 209.351L136.757 208.706L137.231 208.4C137.411 208.309 137.581 208.199 137.738 208.072C137.961 207.792 138.223 207.545 138.515 207.338C138.818 207.173 139.139 207.043 139.471 206.952C139.795 206.843 140.105 206.697 140.396 206.518C140.642 206.337 140.898 206.171 141.164 206.021C141.635 205.809 142.123 205.641 142.625 205.519C143.499 205.186 144.171 205.007 144.524 204.871C144.84 204.759 145.165 204.674 145.495 204.616C145.807 204.541 146.109 204.431 146.396 204.289L147.099 203.834L147.41 203.634L147.688 203.454C147.995 203.165 148.256 202.832 148.463 202.466C148.634 202.192 148.718 201.999 148.672 201.82C148.636 201.723 148.569 201.64 148.482 201.583C148.396 201.527 148.293 201.499 148.19 201.504C147.839 201.55 147.493 201.626 147.155 201.732L147.04 201.806L146.91 201.89L146.52 201.933C146.222 201.972 145.927 202.031 145.637 202.109C145.328 202.169 145.041 202.262 144.694 202.3C144.314 202.332 143.94 202.418 143.583 202.554C143.289 202.744 142.579 202.901 141.715 203.25C141.172 203.416 140.647 203.638 140.15 203.913C139.888 204.082 139.611 204.262 139.332 204.442C139.093 204.664 138.816 204.843 138.515 204.97C138.169 205.108 137.835 205.276 137.519 205.474C137.186 205.718 136.891 206.011 136.643 206.342L136.265 206.726L135.758 207.053L134.728 207.719L133.745 208.493L133.205 208.842L132.682 209.18L132.126 209.539L131.65 209.986C131.343 210.301 131.015 210.582 130.729 210.929L129.732 211.968L128.73 212.964C128.393 213.283 128.08 213.625 127.792 213.988L127.352 214.528L126.813 214.876C126.424 215.129 126.094 215.461 125.843 215.851C125.616 216.253 125.513 216.668 125.304 216.989C125.071 217.294 124.812 217.578 124.53 217.837C124.395 217.98 124.268 218.132 124.151 218.291L123.816 218.74C123.435 219.258 123.101 219.809 122.816 220.385C122.569 220.826 122.374 221.295 122.235 221.782C122.15 222.113 122.129 222.458 122.172 222.797C122.147 222.947 122.178 223.1 122.26 223.228C122.343 223.355 122.47 223.447 122.617 223.485Z" fill="#014E72"/>
<path d="M187.061 204.552C187.025 204.784 187.835 205.212 189.448 205.842C191.06 206.472 193.41 207.275 196.335 208.358C199.259 209.44 202.721 210.779 206.706 212.499C211.192 214.425 215.539 216.659 219.718 219.183C220.832 219.903 222.011 220.581 223.135 221.387C224.296 222.154 225.417 222.979 226.495 223.86C228.9 225.74 231.186 227.768 233.339 229.932C234.504 231.028 235.594 232.2 236.604 233.442C237.556 234.665 238.399 235.969 239.123 237.34C240.545 240.202 241.51 243.269 241.982 246.429C242.213 248.113 242.422 249.836 242.489 251.626C242.567 253.369 242.541 255.115 242.413 256.854C242.198 260.408 241.696 263.939 240.914 267.411C240.129 270.961 239.091 274.448 237.806 277.848C236.528 281.304 235.004 284.664 233.245 287.9C231.633 290.825 229.812 293.631 227.799 296.296C226.828 297.644 225.785 298.941 224.672 300.174C223.625 301.414 222.505 302.591 221.312 303.691C220.139 304.861 218.904 305.969 217.615 307.009C216.33 308.071 215.035 309.187 213.725 310.101C211.122 311.983 208.379 313.661 205.521 315.126C202.725 316.566 199.843 317.833 196.889 318.915C195.434 319.461 193.979 319.935 192.531 320.384L187.865 321.773C182.592 323.384 177.086 324.101 171.574 323.896C168.866 323.809 166.165 323.57 163.484 323.178C161.124 322.811 158.799 322.248 156.532 321.495C152.743 320.115 149.278 317.966 146.357 315.183C144.087 312.957 142.139 310.426 140.57 307.661C139.109 305.401 138.118 303.58 137.459 302.381C136.159 300.041 135.006 297.621 134.008 295.138C133.026 292.614 131.927 289.981 130.984 287.804C130.041 285.627 129.13 283.499 128.302 281.573C127.861 280.604 127.453 279.684 127.065 278.797L126.457 277.425C126.181 276.999 126.031 276.516 125.826 276.091C124.218 272.742 122.973 270.528 122.087 268.941C121.201 267.355 120.678 266.509 120.542 266.55C120.406 266.591 120.64 267.67 121.317 269.578C121.993 271.486 123.161 274.191 124.369 277.172L124.818 278.298L125.288 279.527C125.627 280.446 126.003 281.387 126.374 282.355C127.136 284.324 127.966 286.434 128.838 288.68C129.71 290.926 130.566 293.112 131.527 295.603C132.568 298.343 133.807 301.003 135.233 303.564C135.995 304.743 136.954 306.585 138.377 308.823C140.019 311.658 142.03 314.262 144.356 316.569C147.617 319.734 151.542 322.131 155.844 323.588C158.253 324.365 160.72 324.945 163.223 325.321C165.726 325.608 168.187 325.829 170.849 325.966C173.752 326.04 176.657 325.909 179.542 325.573C182.635 325.156 185.689 324.482 188.668 323.553L192.694 322.323C194.148 321.846 195.63 321.378 197.091 320.805C200.092 319.685 203.027 318.395 205.879 316.936C208.804 315.431 211.612 313.708 214.281 311.786C215.617 310.827 216.901 309.797 218.127 308.699C219.435 307.66 220.679 306.543 221.857 305.36C223.127 304.196 224.321 302.952 225.429 301.633L227.115 299.687L228.667 297.64L230.191 295.587L231.576 293.461C232.541 292.048 233.355 290.546 234.196 289.049C235.037 287.553 235.869 285.647 236.75 284.034C237.631 282.419 238.34 280.684 238.879 278.827C240.198 275.36 241.279 271.807 242.114 268.192C242.947 264.649 243.502 261.045 243.772 257.415C243.932 255.617 243.978 253.822 243.964 252.043C243.924 250.333 243.795 248.626 243.58 246.928C243.155 243.346 242.146 239.857 240.591 236.6C239.828 235.044 238.918 233.564 237.874 232.18C236.897 230.967 235.844 229.817 234.722 228.737C233.737 227.678 232.61 226.688 231.555 225.629C230.499 224.569 229.33 223.584 228.132 222.663C226.934 221.742 225.758 220.783 224.506 219.921C223.253 219.058 222.102 218.317 220.934 217.585C216.671 214.936 212.212 212.616 207.596 210.647C203.502 208.904 199.884 207.573 196.721 206.552C193.558 205.531 191.291 205 189.675 204.651C188.058 204.302 187.123 204.326 187.061 204.552Z" fill="#014E72"/>
<path d="M200.563 258.379C200.468 258.321 200.357 258.294 200.246 258.303C200.135 258.312 200.03 258.356 199.946 258.429C199.699 258.671 199.537 258.987 199.485 259.33C199.39 259.803 199.367 260.287 199.417 260.767C199.502 261.293 199.619 261.868 199.735 262.443L199.837 262.887C199.871 263.032 199.896 263.179 199.912 263.326C199.917 263.644 199.943 263.96 199.991 264.274C200.062 264.599 200.351 264.831 200.319 265.176C200.35 265.314 200.339 265.459 200.288 265.59C200.237 265.722 200.149 265.836 200.033 265.918C199.925 266.001 199.81 266.075 199.69 266.14C199.583 266.235 199.462 266.314 199.33 266.372C199.088 266.554 198.801 266.668 198.499 266.701C198.248 266.708 198.001 266.63 197.8 266.479C197.591 266.269 197.429 266.018 197.324 265.742C197.193 265.456 197.087 265.159 197.006 264.856L196.899 264.368L196.89 263.887L196.929 263.373L196.979 262.877C196.992 262.554 197.032 262.232 197.1 261.916C197.147 261.607 197.222 261.302 197.323 261.006L197.469 260.586C197.523 260.443 197.551 260.292 197.551 260.139C197.532 259.837 197.572 259.534 197.671 259.249C197.822 258.996 197.991 258.754 198.178 258.526C198.371 258.299 198.526 258.042 198.637 257.765L198.933 257.04C199.17 256.654 199.455 256.299 199.779 255.982L200.867 254.653C201.096 254.505 201.257 254.215 201.443 254.002C201.64 253.793 201.809 253.559 201.944 253.306C202.073 253.095 202.186 252.875 202.283 252.646L202.433 252.34L202.547 252.266L202.598 252.094C202.646 251.707 202.634 251.315 202.565 250.932C202.57 250.822 202.552 250.712 202.514 250.61C202.476 250.507 202.417 250.413 202.341 250.333C202.266 250.267 202.171 250.229 202.072 250.226C201.972 250.222 201.875 250.254 201.796 250.314C201.555 250.51 201.345 250.74 201.17 250.997L200.942 251.145L200.647 251.335L200.094 251.878C199.865 252.026 199.727 252.278 199.503 252.469C199.24 252.674 199.004 252.912 198.802 253.178C198.609 253.418 198.235 253.915 197.761 254.616C197.416 254.987 197.123 255.403 196.891 255.852C196.779 256.11 196.716 256.406 196.631 256.67C196.536 256.95 196.403 257.215 196.236 257.459C196.045 257.733 195.874 258.021 195.728 258.322C195.604 258.684 195.56 259.069 195.599 259.45C195.593 259.626 195.574 259.8 195.543 259.973C195.486 260.153 195.442 260.336 195.412 260.523C195.318 260.893 195.252 261.27 195.213 261.65C195.177 262.041 195.168 262.435 195.186 262.828C195.179 263.018 195.185 263.207 195.205 263.396L195.202 264.002C195.226 264.218 195.24 264.418 195.28 264.624L195.461 265.227C195.598 265.639 195.784 266.034 196.012 266.404C196.264 266.858 196.613 267.251 197.034 267.554C197.498 267.882 198.055 268.052 198.622 268.038C199.136 268.019 199.636 267.864 200.07 267.589C200.297 267.489 200.507 267.353 200.692 267.188C200.899 267.048 201.089 266.886 201.26 266.704C201.466 266.529 201.634 266.312 201.751 266.068C201.869 265.824 201.935 265.558 201.944 265.287C201.915 264.859 201.835 264.434 201.707 264.024C201.687 263.667 201.688 263.31 201.711 262.954C201.717 262.782 201.707 262.609 201.68 262.44L201.611 261.973C201.516 261.361 201.442 260.852 201.361 260.44C201.324 260.101 201.269 259.765 201.197 259.432C201.152 259.182 201.047 258.948 201 258.769C200.89 258.604 200.739 258.469 200.563 258.379Z" fill="#014E72"/>
<path d="M183.45 203.054C183.411 203.28 183.737 203.534 184.429 203.814C185.372 204.178 186.339 204.476 187.323 204.707C188.557 205.001 190.102 205.419 191.956 205.707C194.01 206.046 196.082 206.258 198.161 206.341C198.734 206.366 199.333 206.397 199.927 206.384L201.732 206.379C203.083 206.412 204.434 206.316 205.766 206.094C207.122 205.785 208.444 205.343 209.712 204.775C210.32 204.568 210.951 204.253 211.538 204.013C212.213 203.733 212.856 203.38 213.454 202.961C214.122 202.564 214.743 202.092 215.305 201.556C215.869 201.028 216.391 200.457 216.868 199.85C217.368 199.27 217.821 198.651 218.222 197.999C218.664 197.358 219.07 196.693 219.438 196.007C219.815 195.353 220.152 194.677 220.449 193.983C220.789 193.271 221.091 192.541 221.354 191.797C221.914 190.299 222.343 188.755 222.637 187.183C222.903 185.744 223.046 184.284 223.064 182.821L222.937 180.58L222.598 178.477C222.37 177.766 222.148 177.027 221.877 176.32C221.508 175.624 221.079 174.961 220.596 174.338C220.093 173.736 219.524 173.193 218.9 172.718C218.248 172.28 217.524 171.962 216.762 171.777C215.289 171.405 213.748 171.397 212.273 171.752C211.601 171.882 210.938 172.054 210.288 172.268C209.603 172.503 208.941 172.799 208.309 173.152C207.101 173.794 206.151 174.547 205.156 174.981L202.033 176.604C201.015 177.146 199.964 177.779 199.026 178.408L196.442 180.077C194.905 181.07 193.355 181.864 191.918 182.653C189.152 184.184 187.08 185.175 186.026 185.624C185.026 186.097 183.998 186.506 182.946 186.848L179.939 187.862C179.022 188.129 178.154 188.365 177.348 188.515C176.958 188.613 176.561 188.683 176.161 188.724L175.577 188.823L174.997 188.896C173.541 189.117 172.48 189.269 171.712 189.3C170.945 189.332 170.479 189.4 170.428 189.573C170.377 189.745 170.735 190.048 171.639 190.299C172.803 190.603 174.004 190.734 175.205 190.688C175.383 190.716 175.563 190.717 175.74 190.691L176.318 190.689C176.761 190.695 177.203 190.673 177.643 190.623C178.623 190.53 179.595 190.368 180.551 190.137C181.608 189.871 182.535 189.621 183.653 189.27C184.841 188.91 186.001 188.462 187.124 187.933C188.211 187.463 190.294 186.418 193.022 184.864C194.298 184.04 195.999 183.266 197.75 182.065L200.27 180.297C201.11 179.674 201.99 179.106 202.903 178.596L205.99 176.88C207.154 176.244 208.181 175.464 209.225 174.929C209.705 174.634 210.212 174.385 210.738 174.184C211.309 173.962 211.895 173.777 212.49 173.632C213.658 173.303 214.885 173.24 216.08 173.448C217.256 173.698 218.311 174.344 219.07 175.278C219.501 175.769 219.858 176.321 220.129 176.915C220.444 177.499 220.695 178.116 220.877 178.754C221.07 179.418 221.227 180.092 221.346 180.773C221.448 181.44 221.511 182.112 221.535 182.787C221.593 184.156 221.517 185.528 221.307 186.881C221.21 187.639 221.059 188.388 220.855 189.124C220.696 189.863 220.484 190.59 220.22 191.298C219.968 192.039 219.658 192.759 219.294 193.452C219.009 194.148 218.667 194.819 218.273 195.459C217.574 196.751 216.76 197.976 215.84 199.12C215.397 199.678 214.917 200.205 214.403 200.699C213.931 201.151 213.416 201.554 212.863 201.903C211.695 202.613 210.451 203.191 209.155 203.626C207.958 204.138 206.713 204.53 205.438 204.797C204.248 205.006 203.039 205.095 201.831 205.061L200.005 205.034L198.272 204.97C196.048 204.828 194.015 204.516 192.214 204.24L187.481 203.444C186.461 203.263 185.43 203.153 184.395 203.117C183.871 202.736 183.496 202.838 183.45 203.054Z" fill="#014E72"/>
<path d="M116.54 263.191C116.413 262.995 116.062 262.989 115.454 263.197C114.603 263.499 113.797 263.918 113.06 264.442C111.893 265.181 110.787 266.012 109.752 266.927C108.555 267.98 107.268 269.252 105.893 270.605L104.831 271.616C104.475 271.962 104.104 272.249 103.711 272.572C102.861 273.122 102.041 273.791 101.076 274.414C100.181 275.064 99.2292 275.632 98.2327 276.112C97.1784 276.509 96.061 276.712 94.9343 276.711C94.3193 276.753 93.7019 276.756 93.0862 276.721C92.4689 276.759 91.8494 276.747 91.2336 276.688C89.9603 276.628 88.6932 276.477 87.4404 276.236C86.1815 275.957 84.94 275.604 83.7229 275.179C82.483 274.771 81.2754 274.27 80.1121 273.681C79.5761 273.431 79.0581 273.145 78.5622 272.825C78.0442 272.539 77.5491 272.215 77.079 271.856C76.5969 271.536 76.1412 271.179 75.7148 270.787C75.2806 270.426 74.8854 270.019 74.5369 269.575L74.0818 268.871L73.6372 268.183C73.3572 267.739 73.124 267.267 72.9392 266.776C72.6313 265.91 72.6637 264.96 73.0281 264.118C73.1212 263.92 73.2476 263.737 73.3969 263.578C73.5178 263.37 73.6727 263.184 73.8539 263.027L75.003 261.936L76.3444 261.07L77.7136 260.069C78.4889 259.455 79.3211 258.917 80.199 258.463C81.0744 258.06 82.0143 257.685 82.9051 257.341C83.796 256.998 84.7627 256.629 85.6591 256.258C86.5556 255.888 87.3116 255.515 88.0611 255.24C89.5222 254.668 90.9909 254.322 92.3416 253.937L97.8582 252.323C98.7971 252.018 99.8006 251.741 100.695 251.512C101.59 251.282 102.616 250.897 103.398 250.601L105.69 249.7L106.685 249.266L107.143 248.971L107.601 248.675C108.466 248.169 109.287 247.592 110.055 246.949C110.575 246.498 110.859 246.221 110.78 246.063C110.702 245.904 110.286 245.871 109.597 246.061C108.909 246.251 107.93 246.674 106.839 247.03L106.416 247.165L105.966 247.293L104.919 247.574L102.576 248.253C101.719 248.505 100.938 248.731 100.017 248.955C99.0948 249.179 98.0213 249.455 97.0123 249.758L91.6247 251.428C90.1101 251.844 88.6174 252.336 87.1524 252.902C86.3052 253.24 85.5 253.645 84.6901 254.005C83.88 254.366 83.0971 254.733 82.1631 255.081C81.2291 255.429 80.3374 255.843 79.2878 256.335C78.2787 256.891 77.3301 257.551 76.4583 258.303L75.2388 259.253L73.8799 260.34C72.9166 261.134 72.0849 262.079 71.421 263.137C70.8239 264.397 70.7429 265.841 71.1944 267.161C71.4117 267.781 71.6944 268.377 72.0392 268.937C72.374 269.497 72.7619 270.023 73.1959 270.511C73.6035 271.036 74.0688 271.514 74.5807 271.938C75.0626 272.363 75.5715 272.755 76.105 273.112C77.1362 273.829 78.2291 274.452 79.3714 274.972C80.6089 275.576 81.8855 276.094 83.1966 276.517L85.1232 277.13L87.1033 277.615C88.402 277.898 89.7201 278.079 91.0462 278.155C91.6933 278.227 92.3441 278.264 92.995 278.266L94.8749 278.305C95.5289 278.277 96.1774 278.276 96.843 278.194C97.5237 278.089 98.1944 277.927 98.8487 277.711C99.9749 277.241 101.049 276.656 102.055 275.964C102.954 275.383 103.902 274.77 104.834 274.168C105.292 273.872 105.767 273.566 106.129 273.123L107.283 272.075L111.158 268.457C112.312 267.409 113.35 266.576 114.251 265.854C115.152 265.133 115.759 264.601 116.203 264.176C116.646 263.75 116.651 263.398 116.54 263.191Z" fill="#014E72"/>
<path d="M81.6081 269.789C81.4365 269.66 81.2285 269.591 81.0146 269.592C80.8072 269.581 80.6039 269.541 80.4074 269.473C80.0566 269.309 79.7561 269.055 79.5364 268.736C79.3778 268.554 79.2649 268.337 79.2026 268.104C79.1403 267.87 79.1297 267.628 79.1767 267.39L79.3486 266.977C79.4261 266.833 79.5188 266.703 79.6301 266.586C79.9085 266.406 80.218 266.206 80.5039 265.859C80.7897 265.511 81.0968 265.197 81.4683 264.911C81.8566 264.648 82.2978 264.474 82.7611 264.4C83.0206 264.346 83.2762 264.274 83.5257 264.185L84.2645 263.893C84.7569 263.665 85.2609 263.463 85.7748 263.289L87.3378 262.766L88.9068 262.217L90.3402 261.709L91.0509 261.482L91.7723 261.271L92.4985 261.103L93.2364 260.882L94.6312 260.422L96.0038 259.999L96.6657 259.804C96.8874 259.694 97.0957 259.559 97.287 259.403C97.6231 259.124 97.991 258.886 98.3827 258.695C98.7769 258.571 99.1789 258.474 99.5862 258.404C99.9946 258.321 100.392 258.189 100.769 258.011L101.748 257.518C102.337 257.302 102.943 257.136 103.56 257.021L105.855 256.304C106.198 256.082 106.626 256.062 107.032 255.938C107.411 255.837 107.778 255.694 108.124 255.511L108.991 254.951L109.563 254.581L109.759 254.454C110.098 254.117 110.389 253.734 110.623 253.316C110.784 253.026 110.873 252.806 110.81 252.637C110.748 252.469 110.609 252.326 110.225 252.412C109.823 252.498 109.432 252.626 109.058 252.795L108.911 252.89L108.764 252.985L108.319 253.087L107.322 253.336C106.97 253.464 106.609 253.565 106.242 253.639C105.816 253.707 105.397 253.815 104.99 253.961L102.78 254.738C102.128 254.895 101.493 255.112 100.881 255.385C100.586 255.576 100.259 255.787 99.9486 255.988C99.6227 256.167 99.2763 256.305 98.9164 256.399C98.5259 256.512 98.1084 256.62 97.6791 256.781C97.2518 256.975 96.8552 257.232 96.5018 257.541C96.333 257.674 96.1525 257.79 95.9623 257.89L95.3323 258.135L93.9963 258.65L92.6273 259.186L91.9645 259.452L91.2536 259.679L90.5264 259.917L89.8254 260.23L88.4286 260.831L86.8856 261.456L85.333 261.995C84.8068 262.15 84.3066 262.38 83.8017 262.567L83.0687 262.832C82.8266 262.912 82.5783 262.971 82.3262 263.01C81.7667 263.079 81.2247 263.248 80.7255 263.51C80.2513 263.816 79.8678 264.227 79.4953 264.514C79.0545 264.79 78.6366 265.106 78.251 265.457C78.0383 265.638 77.8568 265.858 77.719 266.103C77.5702 266.346 77.4502 266.602 77.3578 266.87C77.1987 267.387 77.1723 267.936 77.2804 268.466C77.3861 268.999 77.627 269.493 77.9739 269.908C78.2194 270.241 78.5249 270.524 78.8802 270.737C79.233 270.951 79.6243 271.094 80.0317 271.156C80.3233 271.196 80.617 271.161 80.8891 271.051C81.1589 270.942 81.3962 270.761 81.5761 270.529C81.8408 270.149 81.854 269.885 81.6081 269.789Z" fill="#014E72"/>
<path d="M213.975 189.668C214.081 189.732 214.207 189.752 214.328 189.726C214.449 189.7 214.555 189.629 214.625 189.527C214.767 189.342 214.866 189.127 214.915 188.899C214.964 188.67 214.961 188.434 214.908 188.207C214.798 187.546 214.478 186.938 213.997 186.473C213.374 185.861 212.557 185.485 211.688 185.411C211.458 185.38 211.225 185.382 210.996 185.417L210.303 185.493C209.81 185.552 209.331 185.697 208.887 185.921C208.493 186.224 208.134 186.573 207.82 186.959C207.485 187.271 207.097 187.521 206.675 187.698L206.054 188.1L205.449 188.491C205.08 188.812 204.692 189.109 204.286 189.381L201.751 191.019L200.59 191.769L200.018 192.139L199.409 192.417L198.773 192.688C198.563 192.763 198.359 192.856 198.164 192.965L196.957 193.537L195.778 194.043L195.18 194.267C194.98 194.361 194.793 194.482 194.625 194.626C194.325 194.877 193.995 195.09 193.643 195.26C193.291 195.394 192.926 195.49 192.553 195.546C192.187 195.628 191.83 195.75 191.49 195.909L190.608 196.339C190.079 196.53 189.527 196.652 188.966 196.703C187.969 196.953 187.227 197.061 186.908 197.104C186.559 197.181 186.204 197.232 185.847 197.256C185.497 197.298 185.154 197.38 184.822 197.5L183.959 197.779L183.616 198.001L183.452 198.106L183.273 198.223C182.908 198.474 182.579 198.773 182.293 199.111C182.069 199.372 181.947 199.544 181.967 199.717C181.986 199.89 182.168 200.028 182.437 200.086C182.819 200.109 183.201 200.087 183.578 200.022L183.709 199.938L183.84 199.853L184.277 199.849L185.234 199.788C185.591 199.766 185.9 199.706 186.284 199.69C186.695 199.699 187.105 199.66 187.507 199.574C187.881 199.471 188.655 199.342 189.664 199.038C190.271 198.944 190.864 198.779 191.432 198.546L192.315 197.975C192.621 197.792 192.95 197.65 193.294 197.552C193.682 197.45 194.063 197.32 194.433 197.164C194.839 196.984 195.214 196.741 195.545 196.446C195.698 196.313 195.869 196.203 196.052 196.118L196.592 195.769C196.952 195.537 197.328 195.294 197.767 195.149L198.949 194.502L199.521 194.132L200.11 193.752L200.698 193.371L201.221 193.033L202.399 192.272L203.707 191.427L204.999 190.592C205.434 190.346 205.854 190.074 206.258 189.779L206.879 189.377C207.059 189.227 207.257 189.099 207.468 188.997C207.886 188.785 208.28 188.53 208.645 188.236C208.916 187.928 209.216 187.648 209.543 187.401C209.863 187.257 210.21 187.183 210.561 187.184L211.053 187.191C211.188 187.186 211.324 187.191 211.458 187.208C211.883 187.3 212.277 187.502 212.601 187.793C212.844 188.015 213.05 188.273 213.212 188.559C213.348 188.734 213.469 188.92 213.572 189.116C213.635 189.343 213.778 189.539 213.975 189.668Z" fill="#014E72"/>
<path d="M146.926 260.855C147.344 261.002 147.722 261.241 148.033 261.556C148.344 261.871 148.579 262.253 148.72 262.672C148.862 263.092 148.906 263.537 148.848 263.976C148.791 264.414 148.635 264.834 148.391 265.203C147.816 265.898 146.996 266.346 146.1 266.455C145.204 266.563 144.3 266.323 143.574 265.784C142.871 265.213 142.353 264.446 142.087 263.58C141.821 262.714 141.818 261.789 142.079 260.922C142.219 260.277 142.539 259.684 143.001 259.213C143.463 258.742 144.049 258.411 144.692 258.259C145.013 258.212 145.34 258.238 145.65 258.336C145.959 258.434 146.242 258.601 146.478 258.824C146.714 259.047 146.896 259.321 147.011 259.625C147.125 259.928 147.17 260.254 147.14 260.577" fill="#014E72"/>
<path d="M147.124 260.588C147.228 260.617 147.338 260.615 147.44 260.582C147.542 260.549 147.633 260.486 147.7 260.402C147.779 260.269 147.828 260.119 147.845 259.964C147.861 259.81 147.843 259.653 147.793 259.506C147.691 259.066 147.47 258.662 147.155 258.339C146.739 257.94 146.227 257.654 145.669 257.511C145.508 257.472 145.344 257.446 145.179 257.433L144.677 257.41C144.308 257.382 143.94 257.458 143.615 257.632C143.313 257.851 143.071 258.143 142.912 258.481C142.706 258.742 142.466 258.975 142.2 259.173C142.069 259.295 141.957 259.438 141.87 259.595C141.783 259.751 141.71 259.914 141.652 260.083C141.536 260.418 141.439 260.76 141.363 261.106C141.281 261.461 141.218 261.819 141.176 262.179C141.17 262.549 141.199 262.919 141.263 263.284C141.304 263.619 141.385 263.949 141.504 264.266C141.588 264.413 141.68 264.555 141.779 264.692L141.973 265.171C142.062 265.329 142.161 265.482 142.269 265.629C142.36 265.787 142.458 265.94 142.565 266.088C142.817 266.361 143.094 266.61 143.393 266.83C143.691 267.04 144.013 267.214 144.353 267.348C144.521 267.412 144.693 267.463 144.869 267.501C145.051 267.561 145.247 267.563 145.431 267.51C145.734 267.42 146.042 267.345 146.353 267.286C146.639 267.263 146.958 267.29 147.277 267.246C147.598 267.207 147.904 267.089 148.168 266.902C148.396 266.722 148.608 266.523 148.803 266.307C149.176 265.963 149.512 265.582 149.807 265.17C150.115 264.574 150.276 263.913 150.276 263.242C150.265 262.907 150.228 262.574 150.165 262.245C150.102 261.925 149.963 261.625 149.761 261.369C149.595 261.128 149.394 260.913 149.164 260.732L148.843 260.522L148.748 260.375L148.559 260.334C148.363 260.297 148.161 260.3 147.965 260.343C147.77 260.385 147.585 260.466 147.421 260.582C147.331 260.628 147.251 260.692 147.186 260.77C147.121 260.848 147.072 260.938 147.043 261.036C147.019 261.113 147.012 261.196 147.024 261.276C147.036 261.357 147.066 261.434 147.112 261.501C147.197 261.632 147.347 261.651 147.492 261.767L147.577 261.898C147.577 261.898 147.64 261.996 147.682 262.061C147.725 262.127 147.82 262.275 147.894 262.389C147.949 262.527 147.966 262.676 147.942 262.823C148.016 262.937 147.9 263.152 147.909 263.309C147.914 263.556 147.857 263.801 147.742 264.02C147.628 264.094 147.464 264.199 147.358 264.43C147.312 264.556 147.248 264.675 147.17 264.784C147.134 264.846 147.085 264.898 147.025 264.937C146.965 264.975 146.897 264.999 146.827 265.006C146.712 265.08 146.502 265.007 146.34 265.042C146.177 265.077 145.996 265.264 145.8 265.391C145.743 265.465 145.662 265.517 145.571 265.539L145.259 265.485C145.055 265.426 144.86 265.342 144.679 265.233C144.483 265.135 144.301 265.01 144.138 264.863C144.061 264.782 144 264.687 143.958 264.584C143.89 264.497 143.83 264.404 143.778 264.306L143.588 264.011C143.512 263.913 143.445 263.809 143.386 263.7C143.276 263.481 143.184 263.253 143.109 263.02C142.94 262.492 142.929 261.926 143.077 261.392C143.173 261.145 143.203 260.869 143.309 260.639L143.481 260.295C143.573 260.211 143.678 260.144 143.792 260.094C144.013 260.01 144.213 259.881 144.381 259.714C144.544 259.608 144.57 259.29 144.744 259.2C144.918 259.144 145.105 259.145 145.279 259.203L145.472 259.287C145.472 259.287 145.536 259.385 145.655 259.355C145.874 259.452 146.079 259.576 146.266 259.726C146.372 259.89 146.456 260.021 146.629 260.072L147.063 260.349C147.075 260.431 147.096 260.511 147.124 260.588Z" fill="#014E72"/>
<path d="M203.323 242.06C203.315 241.833 203.058 241.65 202.59 241.535C201.925 241.402 201.245 241.364 200.571 241.423C199.538 241.436 198.508 241.519 197.488 241.674C196.152 241.88 194.829 242.154 193.522 242.496C193.151 242.579 192.785 242.684 192.426 242.809L191.32 243.106C190.486 243.315 189.67 243.586 188.877 243.917C188.095 244.355 187.341 244.842 186.621 245.376C185.917 245.83 185.097 246.174 184.249 246.583C183.8 246.779 183.369 247.011 182.959 247.278C182.55 247.542 182.141 247.806 181.732 248.07L179.379 249.846C178.546 250.385 177.871 251.099 177.052 251.768C176.232 252.437 175.628 253.152 174.893 253.952C174.158 254.752 173.637 255.344 173.06 256.065L172.219 257.166L171.383 258.24L170.541 259.341L169.748 260.481L168.318 262.752L166.98 264.986L166.338 266.074C166.119 266.464 165.933 266.872 165.781 267.293C165.523 268.032 165.214 268.751 164.855 269.447C164.506 270.09 164.093 270.706 163.739 271.306C163.347 271.932 162.992 272.58 162.675 273.247L161.84 275.04C161.32 276.037 160.746 277.005 160.12 277.939L157.909 281.691C157.559 282.334 157.173 282.956 156.824 283.599C156.43 284.223 156.074 284.872 155.76 285.54L155.018 287.226L154.716 287.979L154.566 288.355L154.452 288.753C154.259 289.494 154.144 290.254 154.108 291.019C154.079 291.548 154.097 291.862 154.247 291.951C154.397 292.04 154.702 291.866 155.032 291.444C155.432 290.827 155.791 290.184 156.106 289.519L156.277 289.246L156.471 288.935L156.912 288.255L157.868 286.686C158.205 286.096 158.505 285.555 158.912 284.966C159.32 284.377 159.729 283.718 160.128 282.973C160.527 282.227 161.192 281.032 162.176 279.327C162.642 278.469 163.314 277.501 163.877 276.255L164.664 274.423C164.929 273.802 165.237 273.2 165.585 272.621C165.955 272.01 166.348 271.362 166.649 270.68C166.983 269.939 167.265 269.175 167.49 268.394C167.603 267.953 167.761 267.524 167.961 267.115L168.532 266.026L169.763 263.768L171.074 261.528L171.747 260.419L172.513 259.344L173.301 258.231L174.083 257.146C174.617 256.429 175.14 255.696 175.732 255.035C176.325 254.374 177.092 253.553 177.745 252.876C178.448 252.198 179.191 251.563 179.969 250.974C180.771 250.456 181.52 249.786 182.278 249.273C182.67 249.019 183.063 248.766 183.455 248.512C183.833 248.278 184.229 248.076 184.641 247.908C185.478 247.554 186.325 247.215 187.169 246.763C187.88 246.306 188.615 245.886 189.369 245.504C190.102 245.24 190.85 245.02 191.609 244.845L192.764 244.587C193.138 244.485 193.485 244.376 193.837 244.311C195.247 243.981 196.53 243.779 197.662 243.558L200.678 243.096C201.314 242.978 201.944 242.827 202.564 242.643C203.047 242.494 203.314 242.297 203.323 242.06Z" fill="#014E72"/>
<path d="M173.453 287.273C173.418 287.362 173.403 287.459 173.409 287.555C173.415 287.651 173.442 287.745 173.489 287.83C173.543 287.917 173.614 287.992 173.699 288.049C173.784 288.106 173.88 288.145 173.981 288.162C174.258 288.255 174.547 288.303 174.838 288.305C175.235 288.311 175.63 288.274 176.018 288.193L176.349 288.095L176.69 288.013C176.96 287.968 177.215 287.859 177.435 287.695C177.622 287.453 177.759 287.176 177.835 286.879C177.961 286.628 178.125 286.397 178.319 286.195C178.414 286.064 178.484 285.916 178.525 285.76C178.552 285.614 178.564 285.466 178.564 285.317C178.561 285.014 178.536 284.712 178.489 284.413C178.453 284.094 178.363 283.783 178.221 283.495C178.054 283.178 177.82 282.902 177.535 282.685C177.263 282.476 176.947 282.331 176.611 282.26L176.132 282.198L175.656 282.18L175.202 282.195L174.785 282.302L174.068 282.556L173.438 282.801L173.16 282.981C173.048 283.02 172.947 283.085 172.866 283.171C172.774 283.366 172.64 283.54 172.475 283.679C172.312 283.784 172.095 283.808 171.91 283.881C171.723 283.944 171.554 284.053 171.42 284.198L171.079 284.604C170.836 284.77 170.57 284.902 170.291 284.997L169.326 285.621C169.173 285.742 169.009 285.849 168.835 285.938C168.678 286.043 168.546 286.184 168.452 286.348L168.203 286.788L168.13 286.997C168.14 287.029 168.158 287.057 168.182 287.079C168.191 287.396 168.252 287.71 168.364 288.007C168.42 288.198 168.53 288.369 168.682 288.498C168.741 288.558 168.814 288.603 168.895 288.628C168.976 288.653 169.062 288.657 169.144 288.64C169.259 288.566 169.406 288.471 169.533 288.273L170.22 287.829C170.345 287.726 170.483 287.637 170.629 287.565C170.796 287.492 170.951 287.392 171.086 287.269L171.868 286.649C172.121 286.543 172.354 286.393 172.554 286.205C172.652 286.074 172.742 285.938 172.825 285.798C172.931 285.67 173.074 285.578 173.234 285.534L173.675 285.249C173.855 285.132 173.923 284.879 174.034 284.691C174.065 284.596 174.122 284.51 174.199 284.445L174.444 284.287L174.951 283.959L175.442 283.642L175.654 283.505L175.904 283.46L176.114 283.463L176.262 283.368C176.377 283.374 176.491 283.394 176.601 283.427C176.733 283.49 176.848 283.583 176.938 283.697C177.02 283.85 177.066 284.019 177.071 284.192C177.095 284.362 177.105 284.534 177.102 284.705C177.108 284.789 177.099 284.873 177.078 284.954C177.026 285.014 176.958 285.058 176.881 285.081C176.734 285.176 176.603 285.26 176.538 285.302C176.472 285.345 176.473 285.669 176.37 285.76C176.266 285.85 176.071 285.836 175.904 285.828L175.693 285.825L175.477 285.849L174.736 285.886C174.526 285.886 174.317 285.911 174.114 285.963C173.942 286.042 173.782 286.145 173.639 286.27C173.54 286.414 173.471 286.578 173.439 286.751C173.407 286.924 173.412 287.102 173.453 287.273Z" fill="#014E72"/>
<path d="M258.75 202.321C258.954 202.421 259.637 201.469 260.695 199.555C262.165 196.841 263.446 194.027 264.527 191.135C266.17 186.64 267.35 181.987 268.048 177.25C268.496 174.5 268.918 171.565 269.313 168.446L269.464 167.28L269.537 166.676C269.537 166.676 269.484 166.594 269.671 166.38C270.039 165.741 270.478 165.145 270.981 164.605C272.04 163.41 273.223 162.228 274.433 161.051L278.188 157.464L282.105 153.912C284.829 151.455 287.743 148.898 290.858 145.934C292.375 144.443 293.837 142.94 295.198 141.388C296.62 139.882 297.887 138.239 298.982 136.482C299.27 135.999 299.47 135.47 299.571 134.917C299.618 134.4 299.631 133.88 299.608 133.361C299.572 132.319 299.445 131.282 299.229 130.262C299.016 129.184 298.667 128.138 298.19 127.149C297.707 126.051 296.912 125.119 295.903 124.47C294.808 123.842 293.525 123.625 292.286 123.859C291.133 123.976 290.001 124.197 288.853 124.429C286.663 124.915 284.473 125.471 282.309 126.103C277.98 127.368 273.648 128.843 269.3 130.329L264.93 131.853L261.016 133.291L259.695 131.822C259.174 131.231 258.62 130.66 258.049 130.1C254.734 126.709 251.233 123.507 247.562 120.507C244.211 117.796 240.761 115.219 237.19 112.813C235.396 111.651 233.602 110.488 231.726 109.379C229.85 108.269 228.08 107.323 226.207 106.327C224.336 105.331 222.337 104.463 220.35 103.611L217.296 102.472L214.158 101.598L210.989 100.999L207.903 100.671C205.837 100.45 203.771 100.23 201.682 100.047C197.6 99.742 193.502 99.6907 189.414 99.8939C187.408 99.9827 185.38 100.179 183.425 100.49C181.328 100.804 179.252 101.245 177.21 101.813C173.273 102.894 169.954 104.18 166.914 105.215L161.982 107.124C160.389 107.922 158.747 108.611 157.18 109.485C154.02 111.188 151.062 113.239 148.36 115.601L146.479 117.282L144.817 119.052C143.758 120.132 142.761 121.272 141.832 122.467C138.473 126.654 135.645 131.242 133.413 136.126C131.695 139.983 130.316 143.981 129.29 148.078C128.836 149.741 128.502 151.234 128.263 152.55C128.023 153.865 127.749 154.948 127.629 155.838C127.021 159.273 126.634 162.727 126.305 166.236C125.976 169.746 125.928 173.329 125.897 176.368C125.867 179.406 126.043 182.333 126.175 185.011L126.37 188.902L126.539 190.813L126.736 192.66C127.304 197.377 127.888 200.506 128.219 202.776C128.281 203.975 128.481 205.162 128.814 206.316C128.976 206.35 129.255 204.916 129.177 202.32C129.098 199.724 128.759 196.042 128.501 191.983L128.408 190.441L128.339 188.791L128.196 184.983C128.145 182.322 128.081 179.461 128.139 176.428C128.196 173.396 128.312 170.419 128.584 167.109C128.856 163.799 129.299 160.215 129.972 156.344C130.097 155.497 130.279 154.451 130.544 153.211C130.81 151.972 131.121 150.517 131.526 148.955C132.465 145.099 133.729 141.331 135.304 137.69C137.466 132.789 140.25 128.188 143.589 124.002L145.012 122.223L146.58 120.56C148.629 118.35 150.893 116.35 153.339 114.59C154.615 113.638 155.953 112.773 157.345 112.002C160.423 110.266 163.638 108.787 166.958 107.578C170.704 106.202 174.451 104.826 177.884 103.861C179.555 103.388 181.25 103.006 182.962 102.716C184.831 102.414 186.752 102.195 188.688 102.035C192.662 101.773 196.649 101.772 200.623 102.031C204.723 102.249 208.807 102.711 212.853 103.416C214.834 103.827 216.783 104.384 218.682 105.083C219.653 105.416 220.605 105.801 221.535 106.235C222.496 106.606 223.435 107.03 224.349 107.504C226.255 108.409 228.132 109.449 230.046 110.51C231.961 111.572 233.735 112.631 235.507 113.831C239.083 116.137 242.538 118.623 245.861 121.281C249.527 124.209 253.035 127.328 256.373 130.626C257.017 131.3 257.7 131.927 258.312 132.623C258.924 133.319 259.777 134.208 260.512 134.987L264.899 133.382L268.819 131.987C273.167 130.501 277.498 129.026 281.811 127.772C283.969 127.166 286.101 126.555 288.258 126.09C289.255 125.84 290.306 125.672 291.323 125.526L292.855 125.349C293.301 125.321 293.748 125.361 294.182 125.466C295.041 125.856 295.787 126.458 296.35 127.216C296.912 127.973 297.273 128.862 297.398 129.797C297.661 130.81 297.826 131.846 297.891 132.891C297.942 133.413 297.947 133.937 297.907 134.46C297.91 134.659 297.881 134.857 297.824 135.048C297.748 135.259 297.656 135.466 297.55 135.665C296.43 137.391 295.141 139.002 293.703 140.473C292.354 141.972 291.023 143.319 289.719 144.603C287.13 147.089 284.238 149.607 281.438 152.09L277.188 155.881L273.259 159.557C272 160.766 270.784 161.969 269.638 163.244C269.029 163.892 268.483 164.595 268.005 165.344C267.731 165.817 267.566 166.344 267.519 166.888L267.352 168.065C267.018 171.136 266.611 174.093 266.098 176.886C265.428 181.655 264.309 186.35 262.758 190.908C261.436 194.711 260.221 197.493 259.471 199.418C258.721 201.342 258.541 202.247 258.75 202.321Z" fill="#014E72"/>
<path d="M286.001 138.74C286.188 138.74 286.373 138.693 286.537 138.602C286.593 138.564 286.64 138.513 286.674 138.455C286.709 138.397 286.73 138.332 286.737 138.265C286.775 138.097 286.788 137.924 286.776 137.751L286.753 137.07L286.658 136.922L286.682 136.744C286.735 136.603 286.748 136.45 286.72 136.302C286.635 136.171 286.519 135.99 286.424 135.843C286.328 135.695 286.384 135.567 286.435 135.394L286.471 135.163L286.344 134.966C286.301 134.802 286.271 134.636 286.253 134.467L286.249 133.959L286.202 133.455L286.16 132.995L286.152 132.768L286.188 132.536L286.223 132.304L286.221 132.05L286.206 131.596L286.201 131.157L286.193 130.93C286.178 130.851 286.132 130.78 286.066 130.734C285.971 130.586 285.772 130.529 285.823 130.357C285.833 130.224 285.856 130.092 285.893 129.963C285.912 129.899 285.918 129.831 285.91 129.764C285.903 129.697 285.882 129.632 285.849 129.573C285.778 129.481 285.714 129.382 285.659 129.279C285.543 129.099 285.648 128.868 285.662 128.673L285.596 127.926C285.577 127.802 285.566 127.678 285.563 127.553C285.528 127.431 285.458 127.323 285.362 127.241C285.31 127.144 285.25 127.051 285.182 126.963L285.098 126.832C284.822 126.754 284.538 126.711 284.251 126.705C284.062 126.699 283.872 126.72 283.689 126.767C283.539 126.804 283.407 126.889 283.313 127.01C283.214 127.074 283.429 127.191 283.378 127.363L283.442 127.461L283.432 127.769C283.447 127.886 283.445 128.004 283.427 128.12C283.378 128.247 283.363 128.385 283.384 128.52L283.537 129.187C283.611 129.302 283.473 129.554 283.6 129.75C283.727 129.947 283.737 129.963 283.801 130.062C283.846 130.09 283.885 130.129 283.914 130.174C283.943 130.219 283.962 130.27 283.97 130.324C283.958 130.446 283.96 130.569 283.976 130.691C284.05 130.806 284.156 130.97 284.355 131.027C284.406 131.078 284.446 131.139 284.471 131.207L284.577 131.371L284.674 131.772L284.782 132.191L284.898 132.37L284.896 132.581C284.925 132.64 284.961 132.695 285.001 132.745L285.128 132.942L285.263 133.365L285.386 133.843C285.412 134.004 285.424 134.167 285.423 134.33C285.432 134.49 285.45 134.649 285.476 134.807L285.592 134.987C285.578 135.069 285.551 135.149 285.514 135.224C285.452 135.38 285.32 135.534 285.399 135.692C285.478 135.85 285.6 136.004 285.664 136.102C285.727 136.2 285.579 136.365 285.523 136.494L285.45 136.704L285.437 136.899C285.396 137.113 285.397 137.333 285.439 137.548C285.447 137.725 285.502 137.898 285.6 138.047C285.705 138.18 285.843 138.283 286.001 138.345C285.98 138.476 285.981 138.609 286.001 138.74Z" fill="#014E72"/>
<path d="M244.392 124.854C244.188 124.754 243.844 124.976 243.427 125.478C243.009 125.979 242.501 126.772 241.749 127.653C240.877 128.734 239.913 129.738 238.867 130.653C237.493 131.863 235.983 132.909 234.367 133.769C233.918 134.058 233.453 134.32 232.973 134.554L231.522 135.143C230.508 135.474 229.402 135.771 228.203 136.104C227.607 136.253 227.018 136.432 226.44 136.64L224.695 137.024C224.12 137.154 223.531 137.207 222.942 137.182C222.313 137.197 221.683 137.169 221.058 137.099C220.416 137.003 219.742 136.928 219.078 136.869L217.121 136.531C215.802 136.286 214.516 135.886 213.29 135.338C212.03 134.787 210.824 134.121 209.686 133.348C208.546 132.552 207.402 131.643 206.1 130.883C204.89 130.183 203.567 129.702 202.191 129.461C201.51 129.346 200.82 129.287 200.13 129.284C199.454 129.279 198.784 129.318 198.124 129.373C197.464 129.427 196.766 129.53 196.023 129.708C195.281 129.886 194.684 130.04 194.049 130.241C192.796 130.633 191.595 131.107 190.422 131.586L187.02 133.065L185.395 133.743L183.699 134.491C182.761 134.968 181.774 135.341 180.755 135.603C179.776 135.812 178.776 135.913 177.774 135.904C176.807 135.879 175.843 135.789 174.887 135.634C173.744 135.446 172.655 135.005 171.703 134.343C170.75 133.682 169.956 132.816 169.379 131.809C168.256 130.206 167.281 128.505 166.466 126.726C166.03 125.8 165.686 124.908 165.31 123.897C164.935 122.886 164.628 122.016 164.294 121.141C163.96 120.265 163.717 119.494 163.484 118.739C163.365 118.375 163.245 118.011 163.153 117.652L162.987 117.109L162.816 116.593C162.326 115.261 161.917 114.341 161.634 113.688C161.351 113.035 161.151 112.653 160.967 112.656C160.784 112.659 160.659 113.111 160.659 113.9C160.719 114.973 160.858 116.039 161.075 117.091L161.144 117.557L161.229 118.083C161.278 118.446 161.348 118.842 161.429 119.254C161.58 120.062 161.79 120.925 162.042 121.853C162.295 122.781 162.601 123.651 162.923 124.651C163.267 125.747 163.688 126.817 164.181 127.854C165.078 129.737 166.14 131.538 167.356 133.233C168.383 134.79 169.77 136.076 171.4 136.981C172.339 137.464 173.343 137.809 174.38 138.005C175.427 138.183 176.486 138.275 177.548 138.28C178.728 138.291 179.905 138.162 181.054 137.895C182.249 137.578 183.404 137.128 184.498 136.552L185.977 135.828C186.531 135.61 187.08 135.348 187.64 135.102L190.946 133.546C192.066 133.055 193.196 132.58 194.369 132.17C194.944 131.984 195.509 131.782 196.105 131.629C196.701 131.476 197.286 131.377 197.882 131.294C198.477 131.211 199.121 131.166 199.748 131.133C200.359 131.108 200.971 131.131 201.579 131.204C202.779 131.341 203.945 131.697 205.017 132.256C206.25 132.968 207.442 133.748 208.589 134.591C209.172 135.027 209.832 135.367 210.432 135.722C211.055 136.135 211.716 136.485 212.407 136.768C213.711 137.359 215.072 137.818 216.467 138.138L218.542 138.515C219.194 138.628 219.858 138.687 220.537 138.805C221.209 138.922 221.89 138.98 222.572 138.976C223.288 139.031 224.009 139.002 224.718 138.89L226.756 138.456C227.374 138.265 227.944 138.106 228.507 137.974C229.602 137.731 230.768 137.419 231.907 137.101L233.59 136.477C234.114 136.27 234.623 136.026 235.113 135.749C236.061 135.303 236.967 134.772 237.82 134.162C238.606 133.635 239.349 133.046 240.043 132.401C241.21 131.376 242.234 130.198 243.089 128.9C243.641 128.093 244.068 127.206 244.356 126.27C244.617 125.382 244.638 125.02 244.392 124.854Z" fill="#014E72"/>
<path d="M183.416 228.291C183.373 228.101 183.264 227.933 183.109 227.816C182.963 227.741 182.798 227.71 182.635 227.728C182.42 227.751 182.207 227.795 182.001 227.859L181.122 228.148L180.909 228.286L180.713 228.412C180.515 228.433 180.323 228.486 180.143 228.572C179.995 228.748 179.86 228.936 179.741 229.133C179.578 229.239 179.431 229.334 179.187 229.352L178.926 229.521L178.582 229.743C178.402 229.859 178.206 229.986 178.026 230.102L177.454 230.472L176.097 231.349C176.021 231.421 175.932 231.478 175.835 231.518L175.557 231.697C175.465 231.746 175.377 231.802 175.295 231.867L174.772 232.205L174.265 232.532L174.02 232.691C173.938 232.768 173.882 232.869 173.859 232.98C173.803 233.179 173.783 233.401 173.674 233.518L173.232 233.803C173.072 233.892 172.941 234.025 172.854 234.187L172.665 234.611C172.506 234.824 172.309 235.006 172.085 235.148L171.42 235.949C171.316 236.092 171.202 236.228 171.08 236.355C170.985 236.491 170.919 236.644 170.885 236.806C170.843 236.953 170.816 237.102 170.803 237.254L170.8 237.465L170.853 237.547C170.853 237.547 170.853 237.547 170.906 237.629C171.029 237.91 171.197 238.17 171.403 238.398C171.526 238.556 171.68 238.686 171.857 238.778C171.93 238.813 172.009 238.831 172.089 238.831C172.17 238.831 172.249 238.814 172.322 238.78C172.436 238.706 172.471 238.544 172.549 238.378L172.565 238.367L172.712 238.272C172.831 238.217 172.941 238.146 173.039 238.061L173.33 237.757C173.476 237.685 173.613 237.596 173.739 237.493C173.889 237.25 174.057 237.018 174.24 236.798C174.429 236.648 174.584 236.461 174.696 236.248C174.794 236.184 174.77 235.967 174.815 235.822C174.849 235.689 174.929 235.571 175.041 235.491L175.433 235.237C175.581 235.142 175.531 234.849 175.56 234.644C175.562 234.555 175.586 234.468 175.629 234.391L175.841 234.254L176.219 233.87L176.597 233.487L176.826 233.339L177.317 233.022L177.546 232.874L177.956 232.469L178.496 232.12L179.019 231.782C179.183 231.676 179.362 231.56 179.526 231.455L179.788 231.286L180.08 231.236C180.28 231.223 180.512 231.259 180.681 231.126C180.798 230.967 180.924 230.815 181.06 230.672C181.233 230.625 181.413 230.611 181.59 230.632L181.844 230.63L182.041 230.503C182.309 230.452 182.574 230.382 182.832 230.293C183.032 230.197 183.218 230.077 183.388 229.934C183.517 229.793 183.615 229.627 183.676 229.447C183.751 229.25 183.766 229.035 183.72 228.83C183.673 228.624 183.568 228.437 183.416 228.291Z" fill="#014E72"/>
</svg>
