<?xml version="1.0" encoding="utf-8"?>
<!-- Generator: Adobe Illustrator 26.0.1, SVG Export Plug-In . SVG Version: 6.00 Build 0)  -->
<svg version="1.1" id="Layer_1" xmlns="http://www.w3.org/2000/svg" xmlns:xlink="http://www.w3.org/1999/xlink" x="0px" y="0px"
	 viewBox="0 0 180 180" style="enable-background:new 0 0 180 180;" xml:space="preserve">
<style type="text/css">
	.st0{fill:#EE765E;}
</style>
<g>
	<path class="st0" d="M69.2,90.1c-3.4,0.1-3.3-4.2-4.3-14c-1.8-16.6-0.7-14.6,3.9-14.8c1.9-0.1,5-4,9.4-1.8
		c7.9,3.8,7.8,24.8-5.7,21.5C69,80.2,73.9,90,69.2,90.1z M73.5,64.8c-7.3,0.2-1.1,17,3,9.7C78.2,71.3,77,64.7,73.5,64.8z"/>
	<path class="st0" d="M95,87.6c-4.4,0.2-0.1-5.1,0.7-7.8c0.4-1.5-2.3-0.6-4.6-2.1c-3.5-2.4-6.9-15.9-3.8-18
		c4.6-3.1,4.4,12.7,7.9,12.6c4.2-0.1,1.5-11.2,4.2-13.4C106.3,53,104.1,87.3,95,87.6z"/>
	<path class="st0" d="M121.9,79.3c-1.1,0-2.4-0.8-2.7-2.9c-0.1-0.9-0.4-7.8-0.7-9.4c-0.4-1.9-1.3-3-2.3-2.6
		c-0.5,0.2-1.4,0.9-2.4,3.8c-0.2,0.7-1.2,6.6-1.4,7.4c-0.6,2.1-1.2,3.3-2.1,3.7c-0.3,0.1-0.6,0.2-0.9,0.2c-1,0-1.8-0.6-2.2-1.3
		c-0.6-1.1-0.6-2.8-0.5-4c0-0.1,0.5-7.4,0.5-8c0.4-3.1,1-4.6,2-4.7c1.4-0.2,1.8-0.8,2.4-1.2c0.2-0.1,3.1-2,4.6-2.3
		c2.3-0.3,4.1,0.8,5.2,1.7c0.8,0.7,1.2,1,1.8,1c0.4,0,2.5-1.6,2.8-1.8c1.1-0.7,2.3-1.1,3.7-1.2c1.4,0,2.5,0.3,3.1,0.7
		c1.3,0.8,2.7,3,3.1,4.8c0.3,1.4,1.2,9.9,1.2,11.7c0,1.6-0.2,3.5-2,3.9c-1.2,0.3-2.8-0.7-3.3-2.8c-0.2-0.9-1-7.5-1-7.5
		c-0.1-0.9-0.8-3.2-2-3.3c-0.8,0-1.8,1.2-2.2,2.3c-0.4,0.8-1.6,8.1-1.8,8.8c-0.7,1.8-1.1,2.8-2.7,3.1
		C122.1,79.3,122,79.3,121.9,79.3z"/>
	<path class="st0" d="M40.8,89.1c-2.4,0.1-3.4-2-3.6-2.9l0,0c-0.1-0.4-0.3-1-0.6-2.1c-0.3-0.2-0.7-0.5-1.2-0.5c-1.5,0-5-0.8-7.2-1.6
		c-5.4-2.2-6.7-3.8-7.8-5.2c-0.2-0.2-0.4-0.5-0.6-0.7c-2.3-2.6-3.4-6.1-2.9-9.7c0.5-3.5,2.4-6.4,4.2-7.7c-0.2-0.1-0.4-0.3-0.6-0.6
		c-0.8-1-1-3.9,1.9-7c2.5-2.7,4.7-3.8,6.4-4.6c0.8-0.4,1.7-0.6,2.6-0.9c0.6-0.2,1.2-0.3,1.8-0.6c1.1-0.4,1.3-1.6,1.4-2.1l0.1-0.3
		c0.7-1.5,1.7-2.4,2.9-2.5l0.2,0c1.8-0.1,2.8,1.1,3,2.1c0.2,1,1.1,1.6,2.9,1.9l1.1,0.2c5.4,1.1,6.3,1.7,9.4,3.8l1,0.7
		c3.3,2.1,5.4,7.6,5.8,9.9c0.4,2.2,0.8,5.6-0.9,10.4c-1.4,4.2-3.7,6.4-5.2,7.9c-3.3,3.2-8.2,4.9-9.8,5.3c-0.6,0.1-0.7,0.7-1,3.3
		c-0.1,1.1-0.3,3.1-3,3.3C41,89.1,40.9,89.1,40.8,89.1z M24.6,57.6c1,0,1.7,0.4,2,0.7c0.6,0.5,0.7,1.3,0.4,2.2
		c-0.1,0.3-0.3,0.6-0.8,1c-0.7,0.8-1.2,2.6-1.6,4.3c-0.4,1.8,0.2,4.8,1.3,6.4c1.1,1.6,1.6,2.1,3.6,3c1.9,0.8,4.3,1,5.3,1l0.2,0
		c0.5,0,0.9-0.2,1.1-0.5c0.3-0.3,0.4-0.8,0.3-1.5c-0.1-1.3-0.2-3.1-0.2-5c0-1.5-0.1-3-0.2-4.4c-0.2-3.2-0.8-9.7-1-10.9
		c-0.2-1.1-0.4-1.2-0.7-1.4c-0.3-0.2-0.7-0.2-1.2-0.2c-0.8,0-1.6,0.3-2,0.4c-2.3,0.9-3.3,1.6-3.8,2C26.1,55.8,25.5,56.5,24.6,57.6z
		 M44.4,51.9c-0.7,0-0.9,0.3-1.3,1.3c-0.5,1-0.6,4.2-0.4,9.6l0,0.2c0.1,2.2,0.7,8.7,1,9.8c0.4,1.1,0.5,1.7,1.6,2
		c0.8,0.2,1.9-0.2,3.3-1.3c3.2-2.4,4.8-5.5,5.2-10.4c0.3-3.3-1.6-7-3.6-8.6c-2.5-1.9-4-2.4-5.6-2.5C44.6,51.9,44.5,51.9,44.4,51.9z"
		/>
	<path class="st0" d="M138.6,132.2c-5.6-2.3,1.7-6.9,4.1-12.5c1.3-2.9,0.6-3.3-1.5-4.1c-6.5-2.3-8-7.4-5.7-14.2
		c4.3-12.4,23.4-13.2,24.9-2.2c0,0.1,3.4,22,3.5,23.1c0.5,5.4-4.7,5.1-3.7,5c-6,0.2-3-11.4-6.4-11.2
		C147.8,116.4,146.8,135.5,138.6,132.2z M146.8,98.3c-5.9,1.9-6.4,15.5,3.4,11.8C158.7,106.8,154.7,95.7,146.8,98.3z"/>
	<path class="st0" d="M125.6,133.4c-6.7,0.3-1.1-15.2-4.1-17.7c-2.1-1.8-12.6-1-13.5-0.6c-5.5,2.5-1.1,17.8-7.1,18.1
		c-5.2,0.2-3.7-7.7-2.6-21.5c0.9-11-0.2-19.1,5.2-19.6c5.6-0.3,0.3,13.8,3.6,15.4c2.7,1.4,8.6,1.1,11.9,0.2c3.6-0.9,4.4-4.9,4.4-8.6
		c0-8.2,1.9-9.1,2.8-9.3c3.8-1,4.2,7.2,3.8,13.5C128.4,131.6,130.2,133.2,125.6,133.4z"/>
	<path class="st0" d="M67,133.1c-7.6,0.3,3.1-11,3.9-12.1c2.3-3.2,1.4-3.3-0.5-4.5c-5.9-3.7-5.9-9.2-2.1-15.1
		c7.1-11.3,25.9-7.9,24.8,3.3c0,0.1-1.9,22.1-2.1,23.3c-1,6.4-7.8,5-7.3-0.8c1.2-11.8-4.5-6.3-11.4,3.1
		C71.3,131.5,69.8,133,67,133.1z M78.1,101.7c-7,1.8-5.2,12.7,2.2,11.4C88.5,111.7,85.5,99.9,78.1,101.7z"/>
	<path class="st0" d="M32.9,139.7c-5.2,0.2-1.7-7.1-8.7-39.7c-1.6-7.5,4.9-9,6.4-2.9c2.1,8.4,3.2,14,4.8,14.5c3,1,9.2-0.4,12.5-1.9
		c6.4-2.9,0.2-19.9,5.4-21.1c4.4-1,4.5,5.8,6.5,25.2c1.4,13.2,5.4,21.6-0.8,21.8C52,136,57.3,116.6,49,117c-1.4,0.1-2.5,0.3-4.6,0.8
		c-4.2,0.8-8.2,1.2-8.3,5.7C35.9,128.6,38.2,139.5,32.9,139.7z"/>
	<path class="st0" d="M152.7,57.7c-5.6-1.5-10.6,2-12.4,9.4c-1.8,7.4,0.7,12.2,6.4,13.6c5.7,1.4,11.7-2.8,13-10.5
		C160.9,62.5,156.9,58.9,152.7,57.7z M153.9,70.2c-0.8,3.6-3.5,5.9-5.9,5c-2.4-0.9-3.2-3.1-2.2-6.9c1-3.8,2.7-5.6,5.6-5.2
		C154.2,63.5,154.7,66.6,153.9,70.2z"/>
</g>
</svg>
