<svg width="38" height="25" viewBox="0 0 38 25" fill="none" xmlns="http://www.w3.org/2000/svg">
<path d="M14.0794 12.5361C13.2328 12.5653 13.2615 11.4738 12.9924 9.02073C12.5332 4.85918 12.8238 5.35199 13.961 5.30814C14.4311 5.29358 15.2168 4.30066 16.3361 4.85554C18.3236 5.82288 18.3093 11.0869 14.9154 10.2546C14.022 10.0356 15.2562 12.4923 14.0794 12.5361ZM15.1414 6.16237C13.2937 6.22443 14.8651 10.4408 15.8876 8.60089C16.3361 7.80871 16.0203 6.12953 15.1414 6.16237Z" fill="#EE765E"/>
<path d="M20.548 11.8864C19.4537 11.9265 20.5265 10.6015 20.7166 9.9151C20.8206 9.53548 20.1462 9.77643 19.5543 9.37488C18.6645 8.77988 17.8215 5.36664 18.5963 4.84462C19.7551 4.05981 19.7085 8.04247 20.5839 8.00962C21.6458 7.97304 20.9498 5.19139 21.6279 4.63288C23.3894 3.20557 22.8405 11.8134 20.548 11.8864Z" fill="#EE765E"/>
<path d="M27.3142 9.80527C27.0308 9.81628 26.7115 9.59717 26.6434 9.08251C26.6147 8.85612 26.5501 7.11125 26.4783 6.72425C26.385 6.23517 26.1555 5.97593 25.89 6.0672C25.7716 6.10732 25.5383 6.28622 25.2908 7.02362C25.2298 7.20251 24.993 8.69552 24.9428 8.88169C24.8029 9.41837 24.6379 9.70673 24.4083 9.81255C24.3401 9.8454 24.2683 9.86369 24.193 9.86369C23.9491 9.87097 23.741 9.70673 23.6477 9.53511C23.4934 9.26869 23.5006 8.84157 23.5329 8.52764C23.5364 8.49115 23.6477 6.67685 23.6692 6.51261C23.7732 5.72406 23.9275 5.36264 24.1823 5.32615C24.5267 5.27874 24.6343 5.13634 24.7957 5.02678C24.846 4.99394 25.567 4.51577 25.9438 4.45735C26.5106 4.36973 26.977 4.6508 27.2604 4.88447C27.4721 5.05963 27.5689 5.13634 27.7089 5.14362C27.8129 5.13998 28.3295 4.74935 28.4049 4.6983C28.674 4.51577 28.9896 4.41358 29.3233 4.40257C29.6713 4.39165 29.9583 4.47928 30.1125 4.57055C30.439 4.76036 30.7978 5.31887 30.8803 5.76783C30.9448 6.12561 31.1816 8.26112 31.1852 8.69916C31.1889 9.10435 31.1386 9.57897 30.6866 9.67388C30.3924 9.73957 29.9763 9.50227 29.8543 8.96568C29.804 8.72837 29.5959 7.06748 29.5959 7.06748C29.5672 6.8521 29.3987 6.25337 29.1045 6.23144C28.8999 6.23881 28.6631 6.53081 28.5412 6.80096C28.4479 6.99805 28.1429 8.82692 28.0784 9.00581C27.9097 9.45122 27.8057 9.71764 27.3968 9.79435C27.3681 9.80163 27.3394 9.80527 27.3142 9.80527Z" fill="#EE765E"/>
<path d="M6.92925 12.2844C6.33376 12.3062 6.07541 11.7696 6.02524 11.5615L6.0324 11.5579C5.99654 11.4593 5.94986 11.2987 5.87456 11.0322C5.80633 10.9774 5.69875 10.9081 5.58035 10.9045C5.19287 10.8972 4.31748 10.7147 3.76501 10.4919C2.41967 9.94076 2.08961 9.53547 1.79902 9.17778C1.74879 9.11936 1.70215 9.06095 1.65192 9.00253C1.07074 8.35639 0.805249 7.47303 0.92364 6.57503C1.03844 5.68794 1.52995 4.95417 1.98198 4.64024C1.92817 4.60376 1.87795 4.55626 1.83489 4.49784C1.63398 4.23505 1.58376 3.51958 2.31205 2.73103C2.9327 2.05205 3.50313 1.78189 3.91927 1.5848C4.12736 1.48625 4.34976 1.4242 4.5651 1.36578C4.71936 1.32192 4.87004 1.28179 5.0243 1.22337C5.30769 1.12119 5.35795 0.818184 5.36868 0.69407L5.38666 0.624733C5.56604 0.248751 5.82431 0.0297317 6.11127 0.00416276L6.16511 0.000523312C6.62073 -0.0141265 6.85753 0.281599 6.9221 0.537107C6.98308 0.781695 7.20915 0.935019 7.6468 1.02629L7.93019 1.08834C9.2756 1.3767 9.50874 1.52638 10.2909 2.03385L10.5456 2.20537C11.3851 2.74195 11.8909 4.12186 12.0058 4.7023C12.1098 5.24626 12.203 6.10769 11.7905 7.31971C11.4317 8.37468 10.8649 8.93319 10.4882 9.3019C9.65584 10.1159 8.4181 10.5358 8.01273 10.6307C7.87287 10.6635 7.82619 10.8168 7.75805 11.4483C7.72934 11.7185 7.67551 12.2186 7.01179 12.277C6.98666 12.2806 6.95796 12.2844 6.92925 12.2844ZM2.85018 4.35189C3.11208 4.35189 3.26993 4.45407 3.34169 4.51977C3.48519 4.64753 3.52106 4.84835 3.44214 5.071C3.41703 5.14034 3.35604 5.21341 3.25199 5.32651C3.06544 5.53461 2.94705 5.96901 2.8466 6.40705C2.74615 6.85246 2.90041 7.60807 3.18024 8.02791C3.44572 8.42582 3.57847 8.55721 4.08435 8.77623C4.55786 8.98069 5.15343 9.03902 5.42252 9.03174L5.47635 9.0281C5.6019 9.01718 5.69518 8.97696 5.75259 8.91126C5.82073 8.83101 5.84586 8.71053 5.82788 8.5462C5.79202 8.22136 5.78129 7.76503 5.76689 7.28686C5.75616 6.91452 5.74534 6.52753 5.72388 6.17711C5.67362 5.37765 5.51936 3.74224 5.46553 3.43559C5.41894 3.16543 5.35437 3.12895 5.29339 3.0961C5.22515 3.05597 5.12115 3.03768 4.99202 3.04496C4.78393 3.05233 4.58299 3.11439 4.49687 3.15088C3.91211 3.38445 3.67889 3.54879 3.55334 3.65097C3.23405 3.8992 3.07261 4.07445 2.85018 4.35189ZM7.82619 2.92085C7.65038 2.92822 7.60379 3.00483 7.49612 3.24578C7.3813 3.49765 7.35259 4.30803 7.40643 5.65509L7.41 5.71351C7.43155 6.26101 7.57866 7.90743 7.6612 8.17022C7.75089 8.45867 7.79391 8.5937 8.06657 8.66304C8.26751 8.71418 8.53292 8.60826 8.89885 8.33455C9.7061 7.73218 10.0972 6.95101 10.212 5.71714C10.2873 4.88119 9.80652 3.9649 9.30073 3.56334C8.68361 3.07417 8.29612 2.95369 7.90515 2.92449C7.87645 2.92085 7.85132 2.91721 7.82619 2.92085Z" fill="#EE765E"/>
<path d="M31.5189 23.1038C30.1233 22.527 31.9351 21.3771 32.545 19.9607C32.8642 19.2197 32.6956 19.1211 32.1719 18.9386C30.5395 18.3655 30.1627 17.066 30.7476 15.3721C31.8167 12.2436 36.6348 12.0611 37.0151 14.8245C37.0187 14.861 37.8762 20.3441 37.9012 20.6433C38.016 21.994 36.7317 21.9174 36.9721 21.91C35.4724 21.9721 36.2151 19.0518 35.3684 19.0883C33.8365 19.1503 33.571 23.9506 31.5189 23.1038ZM33.5818 14.5763C32.1073 15.0545 31.9781 18.475 34.4356 17.5368C36.5739 16.7191 35.5585 13.9338 33.5818 14.5763Z" fill="#EE765E"/>
<path d="M28.2646 23.4111C26.5748 23.4768 27.9955 19.5999 27.2349 18.9539C26.6967 18.4903 24.0634 18.7093 23.8303 18.8151C22.4454 19.4466 23.5612 23.2942 22.0365 23.3563C20.7342 23.4001 21.1073 21.4252 21.3907 17.9427C21.6167 15.1792 21.3297 13.1459 22.6894 13.0218C24.0921 12.9342 22.7648 16.4898 23.5899 16.9059C24.2715 17.2527 25.7496 17.187 26.5892 16.968C27.4968 16.7307 27.7013 15.7414 27.7013 14.8105C27.7013 12.7517 28.182 12.5217 28.4008 12.4669C29.3623 12.2187 29.4485 14.2739 29.3588 15.8729C28.9677 22.9511 29.4054 23.3672 28.2646 23.4111Z" fill="#EE765E"/>
<path d="M13.5085 23.3379C11.6 23.4145 14.2871 20.5781 14.488 20.2934C15.0548 19.483 14.8431 19.4538 14.366 19.1508C12.8808 18.2163 12.8808 16.8473 13.8279 15.3652C15.6252 12.5252 20.3394 13.3757 20.0524 16.1866C20.0488 16.2231 19.5824 21.7353 19.5322 22.0529C19.2811 23.6627 17.559 23.2977 17.7061 21.8412C18.011 18.8843 16.5652 20.2642 14.8324 22.6261C14.6028 22.9363 14.2297 23.305 13.5085 23.3379ZM16.3034 15.4528C14.5346 15.9019 14.9902 18.636 16.8666 18.3148C18.9294 17.9608 18.1689 14.9783 16.3034 15.4528Z" fill="#EE765E"/>
<path d="M4.94871 24.999C3.65355 25.0501 4.51463 23.214 2.77103 15.0259C2.36562 13.1313 4.00875 12.7517 4.39266 14.2886C4.92358 16.4022 5.20339 17.8003 5.59803 17.9318C6.34786 18.18 7.90128 17.8331 8.73007 17.4608C10.3337 16.7417 8.77667 12.4451 10.079 12.1676C11.1803 11.923 11.1983 13.6314 11.7149 18.5157C12.0629 21.8413 13.0711 23.9514 11.5248 24.0097C9.75248 24.0572 11.0835 19.1947 8.98834 19.2824C8.62598 19.297 8.3713 19.37 7.82598 19.4759C6.78193 19.6803 5.77026 19.7788 5.73082 20.9141C5.6913 22.2064 6.28687 24.9516 4.94871 24.999Z" fill="#EE765E"/>
<path d="M35.0594 4.3881C33.6459 4.01575 32.3974 4.89183 31.9489 6.76082C31.5006 8.62991 32.1212 9.82364 33.549 10.1704C34.9805 10.5172 36.4945 9.45494 36.8138 7.52016C37.1366 5.58911 36.1214 4.66917 35.0594 4.3881ZM35.3715 7.52016C35.1814 8.43282 34.4961 8.99861 33.8863 8.77595C33.2728 8.55329 33.0898 7.99842 33.3445 7.04199C33.5993 6.08557 34.0334 5.62924 34.7509 5.72778C35.4361 5.82633 35.5653 6.60759 35.3715 7.52016Z" fill="#EE765E"/>
</svg>
